<svg width="390" height="844" viewBox="0 0 390 844" fill="none" xmlns="http://www.w3.org/2000/svg">
<rect width="804" height="480" transform="translate(-207 -89)" fill="#111724"/>
<path opacity="0.5" d="M331.014 96.6532C417.095 -497.197 563.121 517.214 693.03 -680.427L969.75 440.914L-108.684 1857.56C-232.273 1493 -480.316 678.625 -483.775 337.594C-488.098 -88.6956 -113.464 764.818 -12.9357 246.197C87.593 -272.423 244.932 690.503 331.014 96.6532Z" fill="white" fill-opacity="0.1" stroke="#9AA3B2" stroke-opacity="0.4" stroke-linecap="round" stroke-dasharray="4.56 4.56"/>
<path opacity="0.5" d="M331.014 196.45C417.095 -397.4 563.121 617.011 693.03 -580.63L969.75 540.711L-108.684 1957.35C-232.273 1592.8 -480.316 778.422 -483.775 437.391C-488.098 11.1016 -113.464 864.615 -12.9357 345.995C87.593 -172.626 244.932 790.301 331.014 196.45Z" fill="white" fill-opacity="0.1" stroke="#9AA3B2" stroke-opacity="0.4" stroke-linecap="round" stroke-dasharray="4.56 4.56"/>
<path opacity="0.5" d="M149.628 521.071C86.6703 391.888 114.899 719.637 -0.244148 443.145L-0.244141 847.569L386.228 836.734C395.328 692.967 408.068 382.054 386.228 288.543C358.928 171.653 314.542 539.406 252.699 435.852C190.856 332.298 212.585 650.253 149.628 521.071Z" fill="white" fill-opacity="0.1" stroke="#9AA3B2" stroke-opacity="0.4" stroke-linecap="round" stroke-dasharray="4.56 4.56"/>
</svg>
