<svg width="390" height="245" viewBox="0 0 390 245" fill="none" xmlns="http://www.w3.org/2000/svg">
<g style="mix-blend-mode:overlay">
<g opacity="0.25">
<path d="M20.6437 31.2555C20.6437 30.6837 20.3503 30.1736 19.8613 29.8473C18.5304 28.9596 16.2666 29.7534 16.2666 31.3092V41.9127C16.2666 44.0207 17.8615 45.7698 19.833 46.698C19.9593 46.7575 20.0847 46.8187 20.2089 46.8815C20.4045 46.9804 20.6437 46.8465 20.6437 46.6343V31.2555Z" fill="white"/>
<path d="M26.4799 51.8639C26.4799 52.1566 26.044 52.2604 25.8862 52.01C24.9986 50.601 23.8538 49.3542 22.5132 48.3278C22.2586 48.1328 22.1028 47.8403 22.1028 47.5276V33.5291C22.1028 32.3737 23.3486 31.591 24.523 31.844C25.6029 32.0767 26.4799 32.9385 26.4799 34.0011V51.8639Z" fill="white"/>
<path d="M32.316 47.5276C32.316 47.8403 32.1602 48.1328 31.9055 48.3278C30.565 49.3542 29.4202 50.601 28.5326 52.01C28.3748 52.2604 27.9389 52.1566 27.9389 51.8639V34.0011C27.9389 32.9385 28.8158 32.0767 29.8958 31.844C31.0702 31.591 32.316 32.3737 32.316 33.5291V47.5276Z" fill="white"/>
<path d="M38.1522 41.9127C38.1522 44.0207 36.5573 45.7698 34.5858 46.698C34.4594 46.7575 34.3341 46.8187 34.2099 46.8815C34.0143 46.9804 33.7751 46.8465 33.7751 46.6343V31.2555C33.7751 30.6837 34.0684 30.1736 34.5575 29.8473C35.8883 28.9596 38.1522 29.7534 38.1522 31.3092V41.9127Z" fill="white"/>
</g>
<g opacity="0.25">
<path d="M155.556 17.6508C155.556 17.079 155.262 16.5689 154.773 16.2426C153.443 15.3549 151.179 16.1487 151.179 17.7045V28.308C151.179 30.416 152.774 32.1651 154.745 33.0933C154.871 33.1528 154.997 33.2139 155.121 33.2768C155.317 33.3757 155.556 33.2418 155.556 33.0296V17.6508Z" fill="white"/>
<path d="M161.392 38.2592C161.392 38.5519 160.956 38.6557 160.798 38.4053C159.911 36.9963 158.766 35.7495 157.425 34.7231C157.171 34.5281 157.015 34.2356 157.015 33.9229V19.9244C157.015 18.769 158.261 17.9863 159.435 18.2393C160.515 18.4719 161.392 19.3338 161.392 20.3964V38.2592Z" fill="white"/>
<path d="M167.228 33.9229C167.228 34.2356 167.072 34.5281 166.818 34.7231C165.477 35.7495 164.332 36.9963 163.445 38.4053C163.287 38.6557 162.851 38.5519 162.851 38.2592V20.3964C162.851 19.3338 163.728 18.4719 164.808 18.2393C165.982 17.9863 167.228 18.769 167.228 19.9244V33.9229Z" fill="white"/>
<path d="M173.064 28.308C173.064 30.416 171.469 32.1651 169.498 33.0933C169.372 33.1528 169.246 33.2139 169.122 33.2768C168.926 33.3757 168.687 33.2418 168.687 33.0296V17.6508C168.687 17.079 168.981 16.5689 169.47 16.2426C170.8 15.3549 173.064 16.1487 173.064 17.7045V28.308Z" fill="white"/>
</g>
<g opacity="0.25">
<path d="M297.272 33.5229C297.272 32.9512 296.978 32.441 296.489 32.1147C295.158 31.227 292.895 32.0208 292.895 33.5766V44.1802C292.895 46.2881 294.489 48.0373 296.461 48.9654C296.587 49.0249 296.713 49.0861 296.837 49.1489C297.032 49.2478 297.272 49.114 297.272 48.9018V33.5229Z" fill="white"/>
<path d="M303.108 54.1314C303.108 54.424 302.672 54.5279 302.514 54.2775C301.626 52.8685 300.482 51.6217 299.141 50.5952C298.887 50.4002 298.731 50.1078 298.731 49.795V35.7965C298.731 34.6411 299.977 33.8584 301.151 34.1114C302.231 34.3441 303.108 35.2059 303.108 36.2685V54.1314Z" fill="white"/>
<path d="M308.944 49.795C308.944 50.1078 308.788 50.4002 308.533 50.5952C307.193 51.6217 306.048 52.8685 305.16 54.2775C305.003 54.5279 304.567 54.424 304.567 54.1314V36.2685C304.567 35.2059 305.444 34.3441 306.524 34.1114C307.698 33.8584 308.944 34.6411 308.944 35.7965V49.795Z" fill="white"/>
<path d="M314.78 44.1802C314.78 46.2881 313.185 48.0373 311.214 48.9654C311.087 49.0249 310.962 49.0861 310.838 49.1489C310.642 49.2478 310.403 49.114 310.403 48.9018V33.5229C310.403 32.9511 310.696 32.441 311.185 32.1147C312.516 31.227 314.78 32.0208 314.78 33.5766V44.1802Z" fill="white"/>
</g>
<g opacity="0.5">
<path d="M291.173 118.907C291.558 118.626 292.023 118.474 292.5 118.474C292.977 118.474 293.442 118.626 293.827 118.907L303.371 125.873C304.628 126.788 303.981 128.775 302.427 128.779H282.571C281.017 128.775 280.372 126.788 281.627 125.873L291.173 118.907ZM293.786 123.955C293.786 123.614 293.65 123.287 293.409 123.045C293.168 122.804 292.841 122.669 292.5 122.669C292.159 122.669 291.832 122.804 291.59 123.045C291.349 123.287 291.214 123.614 291.214 123.955C291.214 124.296 291.349 124.623 291.59 124.864C291.832 125.106 292.159 125.241 292.5 125.241C292.841 125.241 293.168 125.106 293.409 124.864C293.65 124.623 293.786 124.296 293.786 123.955ZM291.535 136.495H288.963V130.064H291.535V136.495ZM296.037 136.495H293.464V130.064H296.037V136.495ZM300.86 136.495H297.966V130.064H300.86V136.495ZM301.181 137.781H283.819C283.051 137.781 282.315 138.086 281.772 138.628C281.23 139.171 280.925 139.907 280.925 140.674V141.317C280.925 141.851 281.357 142.282 281.889 142.282H303.11C303.366 142.282 303.611 142.18 303.792 142C303.973 141.819 304.075 141.573 304.075 141.317V140.674C304.075 139.907 303.77 139.171 303.227 138.628C302.685 138.086 301.949 137.781 301.181 137.781ZM287.034 136.495H284.14V130.064H287.034V136.495Z" fill="white"/>
</g>
<g opacity="0.5">
<path d="M141.951 143.494C141.951 142.922 141.658 142.412 141.169 142.086C139.838 141.198 137.574 141.992 137.574 143.548V154.151C137.574 156.259 139.169 158.008 141.141 158.936C141.267 158.996 141.392 159.057 141.517 159.12C141.712 159.219 141.951 159.085 141.951 158.873V143.494Z" fill="white"/>
<path d="M147.787 164.102C147.787 164.395 147.352 164.499 147.194 164.248C146.306 162.839 145.161 161.593 143.821 160.566C143.566 160.371 143.41 160.079 143.41 159.766V145.768C143.41 144.612 144.656 143.829 145.831 144.082C146.911 144.315 147.787 145.177 147.787 146.239V164.102Z" fill="white"/>
<path d="M153.624 159.766C153.624 160.079 153.468 160.371 153.213 160.566C151.873 161.593 150.728 162.839 149.84 164.248C149.682 164.499 149.247 164.395 149.247 164.102V146.239C149.247 145.177 150.123 144.315 151.203 144.082C152.378 143.829 153.624 144.612 153.624 145.768V159.766Z" fill="white"/>
<path d="M159.46 154.151C159.46 156.259 157.865 158.008 155.893 158.936C155.767 158.996 155.642 159.057 155.517 159.12C155.322 159.219 155.083 159.085 155.083 158.873V143.494C155.083 142.922 155.376 142.412 155.865 142.086C157.196 141.198 159.46 141.992 159.46 143.548V154.151Z" fill="white"/>
</g>
<g opacity="0.25">
<path d="M32.6878 151.693C36.2318 150.983 40.8143 148.434 40.8143 141.841C40.8143 135.842 36.4234 131.847 33.266 130.012C32.5642 129.604 31.7445 130.14 31.7445 130.95V133.023C31.7445 134.658 31.0575 137.642 29.1483 138.883C28.1733 139.517 27.1189 138.568 27.001 137.412L26.9035 136.461C26.7901 135.357 25.6655 134.687 24.7835 135.361C23.1974 136.568 21.541 138.688 21.541 141.84C21.541 149.902 27.5373 151.919 30.5348 151.919C30.7102 151.919 30.8931 151.913 31.0835 151.902C29.6029 151.776 27.2096 150.857 27.2096 147.887C27.2096 145.563 28.9045 143.993 30.1924 143.227C30.5394 143.023 30.9441 143.29 30.9441 143.692V144.361C30.9441 144.871 31.1425 145.671 31.613 146.217C32.1458 146.836 32.927 146.188 32.9893 145.374C33.0097 145.117 33.2682 144.954 33.4904 145.083C34.2171 145.509 35.1457 146.416 35.1457 147.887C35.1457 150.209 33.8657 151.277 32.6878 151.693Z" fill="white"/>
</g>
<g opacity="0.25">
<path d="M82.935 31.0731C84.3714 28.4972 85.089 27.2093 86.1627 27.2093C87.2363 27.2093 87.9539 28.4972 89.3904 31.0731L89.7622 31.7397C90.1704 32.4721 90.3744 32.8383 90.6919 33.0797C91.0093 33.3212 91.4061 33.4108 92.1997 33.5899L92.9208 33.7532C95.7097 34.3847 97.1031 34.6998 97.4353 35.7667C97.7663 36.8324 96.8162 37.9445 94.915 40.1678L94.423 40.7426C93.8833 41.374 93.6124 41.6904 93.491 42.0804C93.3697 42.4715 93.4105 42.8932 93.4922 43.7356L93.567 44.5031C93.8538 47.4701 93.9978 48.953 93.1294 49.6117C92.261 50.2704 90.9549 49.6695 88.3451 48.4677L87.6683 48.1571C86.9268 47.8147 86.5561 47.6447 86.1627 47.6447C85.7693 47.6447 85.3985 47.8147 84.6571 48.1571L83.9814 48.4677C81.3704 49.6695 80.0644 50.2704 79.1971 49.6128C78.3275 48.953 78.4715 47.4701 78.7583 44.5031L78.8332 43.7367C78.9148 42.8932 78.9556 42.4715 78.8332 42.0815C78.713 41.6904 78.442 41.374 77.9024 40.7437L77.4103 40.1678C75.5091 37.9457 74.559 36.8335 74.8901 35.7667C75.2211 34.6998 76.6167 34.3835 79.4057 33.7532L80.1267 33.5899C80.9192 33.4108 81.3149 33.3212 81.6335 33.0797C81.952 32.8383 82.155 32.4721 82.5631 31.7397L82.935 31.0731Z" fill="white"/>
</g>
<g opacity="0.25">
<path d="M227.916 6.76038L225.033 9.63663C224.503 10.1649 224.017 10.649 223.633 11.0878C223.372 11.377 223.138 11.6881 222.931 12.0174L222.904 11.9891L222.796 11.8825C222.294 11.3973 221.704 11.0111 221.059 10.7443L220.92 10.6876L220.49 10.5175C220.356 10.4648 220.238 10.3795 220.145 10.2695C220.052 10.1594 219.989 10.028 219.959 9.88719C219.93 9.74634 219.937 9.60045 219.978 9.46268C220.019 9.32492 220.094 9.19963 220.196 9.09811C221.466 7.83061 222.991 6.31029 223.728 6.00532C224.368 5.73797 225.068 5.64828 225.755 5.7457C226.374 5.83753 226.959 6.1561 227.916 6.76038ZM232.84 21.8955C233.072 22.1314 233.225 22.298 233.366 22.476C233.549 22.7111 233.713 22.9597 233.858 23.222C234.019 23.5168 234.144 23.8308 234.395 24.46C234.444 24.579 234.522 24.684 234.621 24.7658C234.721 24.8475 234.839 24.9034 234.965 24.9285C235.092 24.9536 235.222 24.9472 235.345 24.9098C235.469 24.8724 235.581 24.8051 235.672 24.714L235.767 24.6199C237.037 23.3535 238.561 21.8332 238.868 21.0997C239.136 20.4625 239.226 19.7639 239.127 19.0794C239.035 18.4615 238.717 17.8776 238.11 16.9231L235.217 19.8072C234.675 20.348 234.178 20.8435 233.728 21.2312C233.46 21.4647 233.165 21.696 232.84 21.8955Z" fill="white"/>
<path fill-rule="evenodd" clip-rule="evenodd" d="M234.053 18.5669L240.681 11.9574C241.636 11.0062 242.113 10.53 242.364 9.92573C242.614 9.32145 242.616 8.64689 242.616 7.30116V6.65834C242.616 4.58817 242.616 3.55308 241.97 2.91026C241.325 2.26744 240.288 2.26744 238.212 2.26744H237.566C236.217 2.26744 235.542 2.26744 234.936 2.51799C234.328 2.76855 233.851 3.24471 232.895 4.1959L226.267 10.8055C225.152 11.9165 224.46 12.607 224.193 13.2725C224.11 13.4747 224.067 13.6911 224.066 13.9096C224.066 14.8189 224.799 15.5512 226.267 17.0149L226.465 17.211L228.775 14.8653C228.854 14.7858 228.947 14.7224 229.05 14.6789C229.153 14.6354 229.263 14.6125 229.375 14.6117C229.486 14.6108 229.597 14.632 229.701 14.674C229.804 14.7159 229.898 14.7779 229.978 14.8563C230.058 14.9347 230.121 15.028 230.164 15.1308C230.208 15.2337 230.231 15.3441 230.232 15.4558C230.232 15.5675 230.211 15.6783 230.169 15.7818C230.127 15.8853 230.065 15.9796 229.987 16.0592L227.669 18.4116L227.824 18.5669C229.292 20.0294 230.027 20.7618 230.938 20.7618C231.14 20.7618 231.333 20.7267 231.527 20.6553C232.21 20.4036 232.909 19.7075 234.053 18.5669ZM237.167 10.8055C236.753 11.2175 236.193 11.4488 235.61 11.4488C235.026 11.4488 234.466 11.2175 234.053 10.8055C233.848 10.6021 233.686 10.3603 233.575 10.0939C233.464 9.82758 233.407 9.54193 233.407 9.25343C233.407 8.96493 233.464 8.67928 233.575 8.41291C233.686 8.14654 233.848 7.90472 234.053 7.70136C234.466 7.28937 235.026 7.05804 235.61 7.05804C236.193 7.05804 236.753 7.28937 237.167 7.70136C237.372 7.90472 237.534 8.14654 237.645 8.41291C237.756 8.67928 237.813 8.96493 237.813 9.25343C237.813 9.54193 237.756 9.82758 237.645 10.0939C237.534 10.3603 237.372 10.6021 237.167 10.8055Z" fill="white"/>
</g>
<g opacity="0.25">
<path d="M366.23 29.4348L363.347 32.311C362.818 32.8393 362.331 33.3234 361.947 33.7622C361.687 34.0514 361.452 34.3625 361.245 34.6918L361.218 34.6635L361.11 34.5569C360.608 34.0717 360.019 33.6856 359.373 33.4187L359.234 33.362L358.804 33.1919C358.671 33.1392 358.552 33.0539 358.459 32.9439C358.367 32.8338 358.303 32.7025 358.274 32.5616C358.245 32.4207 358.251 32.2749 358.292 32.1371C358.334 31.9993 358.409 31.874 358.511 31.7725C359.78 30.505 361.305 28.9847 362.042 28.6797C362.682 28.4124 363.383 28.3227 364.069 28.4201C364.688 28.5119 365.273 28.8305 366.23 29.4348ZM371.154 44.57C371.386 44.8058 371.539 44.9724 371.68 45.1504C371.864 45.3855 372.028 45.6341 372.172 45.8964C372.333 46.1912 372.459 46.5052 372.709 47.1344C372.759 47.2534 372.836 47.3584 372.936 47.4402C373.035 47.5219 373.153 47.5778 373.28 47.6029C373.406 47.628 373.537 47.6216 373.66 47.5842C373.783 47.5468 373.895 47.4795 373.986 47.3884L374.081 47.2943C375.351 46.0279 376.876 44.5076 377.182 43.7741C377.451 43.1369 377.541 42.4383 377.442 41.7538C377.35 41.1359 377.031 40.5521 376.425 39.5975L373.531 42.4816C372.989 43.0224 372.493 43.5179 372.043 43.9056C371.774 44.1391 371.479 44.3704 371.154 44.57Z" fill="white"/>
<path fill-rule="evenodd" clip-rule="evenodd" d="M372.367 41.2414L378.996 34.6318C379.95 33.6806 380.428 33.2044 380.678 32.6001C380.929 31.9959 380.93 31.3213 380.93 29.9756V29.3327C380.93 27.2626 380.93 26.2275 380.285 25.5847C379.64 24.9418 378.603 24.9418 376.527 24.9418H375.88C374.531 24.9418 373.857 24.9418 373.25 25.1924C372.643 25.443 372.165 25.9191 371.21 26.8703L364.582 33.4799C363.466 34.5909 362.775 35.2814 362.507 35.9469C362.424 36.1491 362.381 36.3655 362.38 36.584C362.38 37.4933 363.114 38.2257 364.582 39.6893L364.779 39.8854L367.09 37.5398C367.168 37.4602 367.261 37.3968 367.364 37.3533C367.467 37.3098 367.577 37.2869 367.689 37.2861C367.801 37.2853 367.912 37.3064 368.015 37.3484C368.119 37.3904 368.213 37.4523 368.292 37.5307C368.372 37.6091 368.435 37.7024 368.479 37.8052C368.522 37.9081 368.545 38.0185 368.546 38.1302C368.547 38.2419 368.526 38.3527 368.484 38.4562C368.442 38.5597 368.38 38.654 368.302 38.7336L365.983 41.086L366.138 41.2414C367.607 42.7039 368.341 43.4362 369.253 43.4362C369.455 43.4362 369.647 43.4011 369.841 43.3297C370.525 43.078 371.223 42.3819 372.367 41.2414ZM375.481 33.4799C375.068 33.8919 374.508 34.1232 373.924 34.1232C373.34 34.1232 372.781 33.8919 372.367 33.4799C372.162 33.2765 372 33.0347 371.889 32.7684C371.778 32.502 371.721 32.2163 371.721 31.9278C371.721 31.6393 371.778 31.3537 371.889 31.0873C372 30.821 372.162 30.5791 372.367 30.3758C372.781 29.9638 373.34 29.7324 373.924 29.7324C374.508 29.7324 375.068 29.9638 375.481 30.3758C375.686 30.5791 375.848 30.821 375.959 31.0873C376.07 31.3537 376.127 31.6393 376.127 31.9278C376.127 32.2163 376.07 32.502 375.959 32.7684C375.848 33.0347 375.686 33.2765 375.481 33.4799Z" fill="white"/>
</g>
<g opacity="0.25">
<path d="M364.098 151.247C365.534 148.672 366.252 147.384 367.326 147.384C368.399 147.384 369.117 148.672 370.553 151.247L370.925 151.914C371.333 152.646 371.538 153.013 371.855 153.254C372.172 153.496 372.569 153.585 373.363 153.764L374.084 153.928C376.873 154.559 378.266 154.874 378.598 155.941C378.929 157.007 377.979 158.119 376.078 160.342L375.586 160.917C375.046 161.548 374.775 161.865 374.654 162.255C374.533 162.646 374.574 163.068 374.655 163.91L374.73 164.678C375.017 167.644 375.161 169.127 374.292 169.786C373.424 170.445 372.118 169.844 369.508 168.642L368.831 168.331C368.09 167.989 367.719 167.819 367.326 167.819C366.932 167.819 366.562 167.989 365.82 168.331L365.144 168.642C362.534 169.844 361.227 170.445 360.36 169.787C359.491 169.127 359.635 167.644 359.921 164.678L359.996 163.911C360.078 163.068 360.119 162.646 359.996 162.256C359.876 161.865 359.605 161.548 359.065 160.918L358.573 160.342C356.672 158.12 355.722 157.008 356.053 155.941C356.384 154.874 357.78 154.558 360.569 153.928L361.29 153.764C362.082 153.585 362.478 153.496 362.797 153.254C363.115 153.013 363.318 152.646 363.726 151.914L364.098 151.247Z" fill="white"/>
</g>
<g opacity="0.75">
<path d="M214.083 164.164C217.627 163.454 222.21 160.904 222.21 154.312C222.21 148.313 217.819 144.318 214.661 142.483C213.96 142.075 213.14 142.611 213.14 143.421V145.494C213.14 147.129 212.453 150.113 210.544 151.354C209.569 151.988 208.514 151.039 208.397 149.882L208.299 148.932C208.186 147.828 207.061 147.158 206.179 147.832C204.593 149.039 202.937 151.159 202.937 154.311C202.937 162.373 208.933 164.39 211.93 164.39C212.106 164.39 212.289 164.384 212.479 164.373C210.998 164.247 208.605 163.328 208.605 160.358C208.605 158.034 210.3 156.464 211.588 155.698C211.935 155.494 212.34 155.761 212.34 156.163V156.832C212.34 157.342 212.538 158.142 213.008 158.688C213.541 159.307 214.322 158.659 214.385 157.845C214.405 157.588 214.664 157.425 214.886 157.554C215.613 157.979 216.541 158.886 216.541 160.358C216.541 162.68 215.261 163.748 214.083 164.164Z" fill="white"/>
</g>
<g opacity="0.5">
<path d="M74.864 111.063L71.9809 113.939C71.4515 114.467 70.9651 114.951 70.5808 115.39C70.3207 115.679 70.0859 115.99 69.879 116.32L69.8518 116.291L69.7441 116.185C69.2419 115.7 68.6526 115.313 68.0073 115.047L67.8678 114.99L67.4381 114.82C67.3043 114.767 67.1857 114.682 67.0931 114.572C67.0005 114.462 66.9367 114.33 66.9076 114.19C66.8785 114.049 66.8849 113.903 66.9262 113.765C66.9676 113.627 67.0426 113.502 67.1445 113.4C68.4143 112.133 69.9391 110.613 70.676 110.308C71.3161 110.04 72.0164 109.951 72.7031 110.048C73.3221 110.14 73.9071 110.458 74.864 111.063ZM79.7877 126.198C80.0202 126.434 80.1732 126.6 80.3138 126.778C80.4975 127.013 80.6615 127.262 80.8058 127.524C80.9668 127.819 81.0927 128.133 81.3432 128.762C81.3924 128.881 81.4702 128.986 81.5697 129.068C81.6692 129.15 81.7873 129.206 81.9136 129.231C82.0398 129.256 82.1704 129.25 82.2936 129.212C82.4168 129.175 82.5288 129.107 82.6198 129.016L82.715 128.922C83.9848 127.656 85.5096 126.136 85.8157 125.402C86.0846 124.765 86.1744 124.066 86.0754 123.382C85.9835 122.764 85.665 122.18 85.0584 121.225L82.1652 124.11C81.6232 124.65 81.1267 125.146 80.6766 125.534C80.4079 125.767 80.1131 125.998 79.7877 126.198Z" fill="white"/>
<path fill-rule="evenodd" clip-rule="evenodd" d="M81.0008 122.869L87.6297 116.26C88.5843 115.308 89.0616 114.832 89.3121 114.228C89.5627 113.624 89.5638 112.949 89.5638 111.603V110.961C89.5638 108.891 89.5638 107.855 88.9187 107.213C88.2736 106.57 87.2363 106.57 85.1604 106.57H84.5142C83.1651 106.57 82.4905 106.57 81.884 106.82C81.2763 107.071 80.799 107.547 79.8433 108.498L73.2156 115.108C72.1 116.219 71.4084 116.909 71.1409 117.575C71.058 117.777 71.0149 117.993 71.0139 118.212C71.0139 119.121 71.7474 119.854 73.2156 121.317L73.4128 121.513L75.7234 119.168C75.8017 119.088 75.895 119.025 75.9979 118.981C76.1008 118.938 76.2112 118.915 76.3229 118.914C76.4346 118.913 76.5454 118.934 76.6489 118.976C76.7524 119.018 76.8467 119.08 76.9262 119.159C77.0058 119.237 77.0692 119.33 77.1127 119.433C77.1562 119.536 77.1791 119.646 77.1799 119.758C77.1807 119.87 77.1596 119.981 77.1176 120.084C77.0756 120.188 77.0137 120.282 76.9353 120.361L74.6168 122.714L74.7722 122.869C76.2403 124.332 76.975 125.064 77.8865 125.064C78.0883 125.064 78.281 125.029 78.4749 124.958C79.1585 124.706 79.8569 124.01 81.0008 122.869ZM84.1152 115.108C83.7016 115.52 83.1417 115.751 82.558 115.751C81.9743 115.751 81.4143 115.52 81.0008 115.108C80.7962 114.904 80.6338 114.663 80.523 114.396C80.4121 114.13 80.3551 113.844 80.3551 113.556C80.3551 113.267 80.4121 112.982 80.523 112.715C80.6338 112.449 80.7962 112.207 81.0008 112.004C81.4143 111.592 81.9743 111.36 82.558 111.36C83.1417 111.36 83.7016 111.592 84.1152 112.004C84.3198 112.207 84.4822 112.449 84.593 112.715C84.7039 112.982 84.7609 113.267 84.7609 113.556C84.7609 113.844 84.7039 114.13 84.593 114.396C84.4822 114.663 84.3198 114.904 84.1152 115.108Z" fill="white"/>
</g>
<g opacity="0.25">
<path d="M349.422 85.674C349.422 85.1023 349.129 84.5921 348.64 84.2659C347.309 83.3781 345.045 84.172 345.045 85.7277V96.3313C345.045 98.4392 346.64 100.188 348.611 101.117C348.738 101.176 348.863 101.237 348.987 101.3C349.183 101.399 349.422 101.265 349.422 101.053V85.674Z" fill="white"/>
<path d="M355.258 106.282C355.258 106.575 354.822 106.679 354.665 106.429C353.777 105.02 352.632 103.773 351.292 102.746C351.037 102.551 350.881 102.259 350.881 101.946V87.9477C350.881 86.7922 352.127 86.0095 353.301 86.2625C354.381 86.4952 355.258 87.357 355.258 88.4196V106.282Z" fill="white"/>
<path d="M361.094 101.946C361.094 102.259 360.939 102.551 360.684 102.746C359.343 103.773 358.199 105.02 357.311 106.429C357.153 106.679 356.717 106.575 356.717 106.282V88.4196C356.717 87.357 357.594 86.4952 358.674 86.2625C359.849 86.0095 361.094 86.7922 361.094 87.9477V101.946Z" fill="white"/>
<path d="M366.93 96.3313C366.93 98.4392 365.336 100.188 363.364 101.117C363.238 101.176 363.112 101.237 362.988 101.3C362.793 101.399 362.553 101.265 362.553 101.053V85.674C362.553 85.1023 362.847 84.5921 363.336 84.2659C364.667 83.3781 366.93 84.172 366.93 85.7277V96.3313Z" fill="white"/>
</g>
<path d="M358.492 212.651C358.492 212.079 358.199 211.569 357.71 211.243C356.379 210.355 354.115 211.149 354.115 212.705V223.308C354.115 225.416 355.71 227.165 357.682 228.093C357.808 228.153 357.933 228.214 358.058 228.277C358.253 228.376 358.492 228.242 358.492 228.03V212.651Z" fill="white"/>
<path d="M364.329 233.259C364.329 233.552 363.893 233.656 363.735 233.405C362.847 231.996 361.702 230.75 360.362 229.723C360.107 229.528 359.951 229.236 359.951 228.923V214.924C359.951 213.769 361.197 212.986 362.372 213.239C363.452 213.472 364.329 214.334 364.329 215.396V233.259Z" fill="white"/>
<path d="M370.165 228.923C370.165 229.236 370.009 229.528 369.754 229.723C368.414 230.75 367.269 231.996 366.381 233.405C366.223 233.656 365.788 233.552 365.788 233.259V215.396C365.788 214.334 366.664 213.472 367.744 213.239C368.919 212.986 370.165 213.769 370.165 214.924V228.923Z" fill="white"/>
<path d="M376.001 223.308C376.001 225.416 374.406 227.165 372.434 228.093C372.308 228.153 372.183 228.214 372.059 228.277C371.863 228.376 371.624 228.242 371.624 228.03V212.651C371.624 212.079 371.917 211.569 372.406 211.243C373.737 210.355 376.001 211.149 376.001 212.704V223.308Z" fill="white"/>
<g opacity="0.25">
<path d="M230.319 196.596C231.755 194.02 232.473 192.733 233.546 192.733C234.62 192.733 235.338 194.02 236.774 196.596L237.146 197.263C237.554 197.995 237.758 198.361 238.076 198.603C238.393 198.844 238.79 198.934 239.584 199.113L240.305 199.276C243.094 199.908 244.487 200.223 244.819 201.29C245.15 202.356 244.2 203.468 242.299 205.691L241.807 206.266C241.267 206.897 240.996 207.214 240.875 207.604C240.754 207.995 240.794 208.416 240.876 209.259L240.951 210.026C241.238 212.993 241.382 214.476 240.513 215.135C239.645 215.794 238.339 215.193 235.729 213.991L235.052 213.68C234.311 213.338 233.94 213.168 233.546 213.168C233.153 213.168 232.782 213.338 232.041 213.68L231.365 213.991C228.754 215.193 227.448 215.794 226.581 215.136C225.711 214.476 225.855 212.993 226.142 210.026L226.217 209.26C226.299 208.416 226.339 207.995 226.217 207.605C226.097 207.214 225.826 206.897 225.286 206.267L224.794 205.691C222.893 203.469 221.943 202.357 222.274 201.29C222.605 200.223 224.001 199.907 226.789 199.276L227.511 199.113C228.303 198.934 228.699 198.844 229.017 198.603C229.336 198.361 229.539 197.995 229.947 197.263L230.319 196.596Z" fill="white"/>
</g>
<path d="M93.2013 194.511C93.2013 193.94 92.908 193.429 92.4189 193.103C91.0881 192.215 88.8242 193.009 88.8242 194.565V205.169C88.8242 207.276 90.4191 209.026 92.3906 209.954C92.517 210.013 92.6423 210.074 92.7665 210.137C92.9621 210.236 93.2013 210.102 93.2013 209.89V194.511Z" fill="white"/>
<path d="M99.0375 215.12C99.0375 215.412 98.6016 215.516 98.4438 215.266C97.5562 213.857 96.4114 212.61 95.0709 211.584C94.8162 211.389 94.6604 211.096 94.6604 210.783V196.785C94.6604 195.629 95.9062 194.847 97.0806 195.1C98.1606 195.332 99.0375 196.194 99.0375 197.257V215.12Z" fill="white"/>
<path d="M104.874 210.783C104.874 211.096 104.718 211.389 104.463 211.584C103.123 212.61 101.978 213.857 101.09 215.266C100.932 215.516 100.497 215.412 100.497 215.12V197.257C100.497 196.194 101.373 195.332 102.453 195.1C103.628 194.847 104.874 195.629 104.874 196.785V210.783Z" fill="white"/>
<path d="M110.71 205.169C110.71 207.276 109.115 209.026 107.143 209.954C107.017 210.013 106.892 210.074 106.767 210.137C106.572 210.236 106.333 210.102 106.333 209.89V194.511C106.333 193.94 106.626 193.429 107.115 193.103C108.446 192.215 110.71 193.009 110.71 194.565V205.169Z" fill="white"/>
<g opacity="0.25">
<path d="M6.42887 83.7979L9.90033 79.1008C12.144 76.0647 13.2663 74.5467 14.3128 74.8675C15.3592 75.1884 15.3592 77.0499 15.3592 80.7742V81.1257C15.3592 82.4691 15.3592 83.1403 15.7889 83.5609L15.8115 83.5836C16.2503 83.9951 16.9487 83.9951 18.3465 83.9951C20.8634 83.9951 22.1207 83.9951 22.5459 84.7581L22.5663 84.7967C22.9676 85.571 22.2386 86.5573 20.7818 88.5266L17.3103 93.2247C15.0656 96.2608 13.9443 97.7789 12.8979 97.4581C11.8515 97.1372 11.8515 95.2756 11.8515 91.5514V91.1999C11.8515 89.8565 11.8515 89.1853 11.4218 88.7647L11.3991 88.742C10.9604 88.3305 10.262 88.3305 8.86411 88.3305C6.34725 88.3305 5.08995 88.3305 4.66594 87.5675L4.6444 87.5289C4.24306 86.7546 4.97204 85.7694 6.42887 83.799" fill="white"/>
</g>
<g opacity="0.5">
<path d="M290.271 213.098L287.388 215.974C286.859 216.502 286.372 216.986 285.988 217.425C285.728 217.714 285.493 218.025 285.286 218.355L285.259 218.326L285.151 218.22C284.649 217.735 284.06 217.348 283.414 217.081L283.275 217.025L282.845 216.855C282.712 216.802 282.593 216.717 282.5 216.607C282.408 216.497 282.344 216.365 282.315 216.224C282.286 216.084 282.292 215.938 282.333 215.8C282.375 215.662 282.45 215.537 282.552 215.435C283.821 214.168 285.346 212.647 286.083 212.343C286.723 212.075 287.424 211.985 288.11 212.083C288.729 212.175 289.314 212.493 290.271 213.098ZM295.195 228.233C295.427 228.469 295.58 228.635 295.721 228.813C295.905 229.048 296.069 229.297 296.213 229.559C296.374 229.854 296.5 230.168 296.75 230.797C296.8 230.916 296.877 231.021 296.977 231.103C297.076 231.185 297.195 231.241 297.321 231.266C297.447 231.291 297.578 231.284 297.701 231.247C297.824 231.21 297.936 231.142 298.027 231.051L298.122 230.957C299.392 229.691 300.917 228.17 301.223 227.437C301.492 226.8 301.582 226.101 301.483 225.417C301.391 224.799 301.072 224.215 300.466 223.26L297.572 226.144C297.03 226.685 296.534 227.181 296.084 227.568C295.815 227.802 295.52 228.033 295.195 228.233Z" fill="white"/>
<path fill-rule="evenodd" clip-rule="evenodd" d="M296.408 224.904L303.037 218.295C303.992 217.343 304.469 216.867 304.719 216.263C304.97 215.659 304.971 214.984 304.971 213.638V212.996C304.971 210.925 304.971 209.89 304.326 209.247C303.681 208.605 302.644 208.605 300.568 208.605H299.921C298.572 208.605 297.898 208.605 297.291 208.855C296.684 209.106 296.206 209.582 295.251 210.533L288.623 217.143C287.507 218.254 286.816 218.944 286.548 219.61C286.465 219.812 286.422 220.028 286.421 220.247C286.421 221.156 287.155 221.888 288.623 223.352L288.82 223.548L291.131 221.203C291.209 221.123 291.302 221.06 291.405 221.016C291.508 220.973 291.618 220.95 291.73 220.949C291.842 220.948 291.953 220.969 292.056 221.011C292.16 221.053 292.254 221.115 292.333 221.193C292.413 221.272 292.476 221.365 292.52 221.468C292.563 221.571 292.586 221.681 292.587 221.793C292.588 221.905 292.567 222.016 292.525 222.119C292.483 222.223 292.421 222.317 292.343 222.396L290.024 224.749L290.179 224.904C291.648 226.367 292.382 227.099 293.294 227.099C293.496 227.099 293.688 227.064 293.882 226.992C294.566 226.741 295.264 226.045 296.408 224.904ZM299.522 217.143C299.109 217.555 298.549 217.786 297.965 217.786C297.382 217.786 296.822 217.555 296.408 217.143C296.203 216.939 296.041 216.698 295.93 216.431C295.819 216.165 295.762 215.879 295.762 215.591C295.762 215.302 295.819 215.016 295.93 214.75C296.041 214.484 296.203 214.242 296.408 214.039C296.822 213.627 297.382 213.395 297.965 213.395C298.549 213.395 299.109 213.627 299.522 214.039C299.727 214.242 299.889 214.484 300 214.75C300.111 215.016 300.168 215.302 300.168 215.591C300.168 215.879 300.111 216.165 300 216.431C299.889 216.698 299.727 216.939 299.522 217.143Z" fill="white"/>
</g>
<g opacity="0.5">
<path d="M166.466 241.257C170.01 240.547 174.593 237.998 174.593 231.405C174.593 225.406 170.202 221.411 167.044 219.576C166.343 219.168 165.523 219.704 165.523 220.514V222.587C165.523 224.222 164.836 227.206 162.927 228.447C161.952 229.081 160.897 228.132 160.779 226.975L160.682 226.025C160.568 224.921 159.444 224.251 158.562 224.925C156.976 226.132 155.319 228.252 155.319 231.404C155.319 239.466 161.316 241.483 164.313 241.483C164.488 241.483 164.671 241.477 164.862 241.466C163.381 241.34 160.988 240.421 160.988 237.451C160.988 235.127 162.683 233.557 163.971 232.791C164.318 232.587 164.722 232.854 164.722 233.256V233.925C164.722 234.435 164.921 235.235 165.391 235.781C165.924 236.4 166.705 235.752 166.768 234.938C166.788 234.681 167.047 234.518 167.269 234.647C167.995 235.073 168.924 235.979 168.924 237.451C168.924 239.773 167.644 240.841 166.466 241.257Z" fill="white"/>
</g>
<g opacity="0.25">
<path fill-rule="evenodd" clip-rule="evenodd" d="M22.6739 226.105C23.6198 226.105 24.5269 225.728 25.1958 225.056C25.8646 224.385 26.2404 223.474 26.2404 222.525C26.2404 221.575 25.8646 220.665 25.1958 219.993C24.5269 219.322 23.6198 218.944 22.6739 218.944C21.728 218.944 20.8208 219.322 20.152 219.993C19.4831 220.665 19.1074 221.575 19.1074 222.525C19.1074 223.474 19.4831 224.385 20.152 225.056C20.8208 225.728 21.728 226.105 22.6739 226.105ZM17.0247 230.763C17.4344 229.599 18.2362 228.932 19.2403 228.219C20.2444 227.506 21.444 227.334 22.6739 227.334C23.9037 227.334 25.1033 227.506 26.1075 228.219C27.1116 228.932 27.8282 229.599 28.2379 230.763H17.0247Z" fill="white"/>
<path fill-rule="evenodd" clip-rule="evenodd" d="M13.5083 232.136C13.1633 232.167 12.8436 232.33 12.6155 232.591C12.3874 232.851 12.2685 233.19 12.2835 233.536C12.2985 233.882 12.4463 234.208 12.6961 234.448C12.946 234.688 13.2786 234.823 13.6249 234.823H15.2243L15.8703 242.817C15.8871 243.042 15.9885 243.253 16.1543 243.408C16.3201 243.562 16.5379 243.647 16.7643 243.648H28.5827C28.8093 243.647 29.0275 243.561 29.1933 243.407C29.3591 243.252 29.4603 243.041 29.4766 242.815L30.123 234.823H31.7224C32.0687 234.823 32.4013 234.688 32.6512 234.448C32.901 234.208 33.0488 233.882 33.0638 233.536C33.0788 233.19 32.9599 232.851 32.7318 232.591C32.5037 232.33 32.184 232.167 31.839 232.136L31.7224 232.142H13.6267L13.5083 232.136ZM22.6735 234.323C22.8409 234.323 23.0049 234.37 23.147 234.458C23.2891 234.547 23.4037 234.673 23.4777 234.823L23.948 235.775L24.9998 235.929C25.1656 235.953 25.3213 236.023 25.4494 236.131C25.5775 236.239 25.6728 236.381 25.7245 236.54C25.7762 236.699 25.7823 236.87 25.7422 237.033C25.702 237.195 25.6171 237.343 25.4971 237.46L24.736 238.202L24.9155 239.248C24.9436 239.413 24.9251 239.583 24.862 239.738C24.799 239.893 24.6938 240.027 24.5585 240.125C24.4231 240.224 24.263 240.282 24.0961 240.294C23.9292 240.307 23.7623 240.272 23.6141 240.194L22.6735 239.699L21.7329 240.192C21.5847 240.27 21.4177 240.305 21.2509 240.293C21.084 240.28 20.9238 240.222 20.7885 240.123C20.6532 240.025 20.548 239.891 20.4849 239.736C20.4218 239.581 20.4033 239.411 20.4315 239.246L20.611 238.2L19.8499 237.459C19.7299 237.342 19.645 237.194 19.6048 237.031C19.5646 236.868 19.5708 236.698 19.6225 236.538C19.6742 236.379 19.7695 236.237 19.8976 236.129C20.0256 236.021 20.1814 235.951 20.3471 235.927L21.399 235.775L21.8693 234.822C21.9433 234.671 22.0578 234.545 22.1999 234.457C22.3421 234.368 22.5061 234.323 22.6735 234.323Z" fill="white"/>
</g>
</g>
</svg>
