<svg width="24" height="24" viewBox="0 0 24 24" xmlns="http://www.w3.org/2000/svg">
<path d="M12.75 2C12.75 1.80109 12.671 1.61032 12.5303 1.46967C12.3897 1.32902 12.1989 1.25 12 1.25C11.8011 1.25 11.6103 1.32902 11.4697 1.46967C11.329 1.61032 11.25 1.80109 11.25 2V5C11.25 5.19891 11.329 5.38968 11.4697 5.53033C11.6103 5.67098 11.8011 5.75 12 5.75C12.1989 5.75 12.3897 5.67098 12.5303 5.53033C12.671 5.38968 12.75 5.19891 12.75 5V2Z"/>
<path fill-rule="evenodd" clip-rule="evenodd" d="M2 21.25H4V16C4 13.8783 4.84285 11.8434 6.34315 10.3431C7.84344 8.84285 9.87827 8 12 8C14.1217 8 16.1566 8.84285 17.6569 10.3431C19.1571 11.8434 20 13.8783 20 16V21.25H22C22.1989 21.25 22.3897 21.329 22.5303 21.4697C22.671 21.6103 22.75 21.8011 22.75 22C22.75 22.1989 22.671 22.3897 22.5303 22.5303C22.3897 22.671 22.1989 22.75 22 22.75H2C1.80109 22.75 1.61032 22.671 1.46967 22.5303C1.32902 22.3897 1.25 22.1989 1.25 22C1.25 21.8011 1.32902 21.6103 1.46967 21.4697C1.61032 21.329 1.80109 21.25 2 21.25ZM13.595 11.219C13.6319 11.1276 13.6865 11.0445 13.7556 10.9742C13.8247 10.9039 13.907 10.848 13.9977 10.8095C14.0884 10.7711 14.1859 10.7509 14.2844 10.7501C14.3829 10.7493 14.4807 10.768 14.572 10.805C15.1625 11.0444 15.699 11.3999 16.1495 11.8505C16.6001 12.301 16.9556 12.8375 17.195 13.428C17.265 13.6114 17.2603 13.8149 17.1819 13.9948C17.1035 14.1748 16.9577 14.3168 16.7758 14.3905C16.5939 14.4642 16.3904 14.4636 16.2089 14.3889C16.0274 14.3142 15.8824 14.1714 15.805 13.991C15.641 13.5867 15.3976 13.2194 15.0891 12.9109C14.7806 12.6024 14.4133 12.359 14.009 12.195C13.8247 12.1204 13.6776 11.9757 13.6 11.7927C13.5224 11.6097 13.5206 11.4033 13.595 11.219Z"/>
<path d="M21.53 5.47C21.6705 5.61063 21.7493 5.80125 21.7493 6C21.7493 6.19875 21.6705 6.38937 21.53 6.53L20.03 8.03C19.9613 8.10369 19.8785 8.16279 19.7865 8.20378C19.6945 8.24477 19.5952 8.26682 19.4945 8.26859C19.3938 8.27037 19.2938 8.25184 19.2004 8.21412C19.107 8.1764 19.0222 8.12026 18.951 8.04904C18.8797 7.97782 18.8236 7.89299 18.7859 7.7996C18.7482 7.70621 18.7296 7.60618 18.7314 7.50548C18.7332 7.40477 18.7552 7.30546 18.7962 7.21346C18.8372 7.12146 18.8963 7.03866 18.97 6.97L20.47 5.47C20.6106 5.32955 20.8012 5.25066 21 5.25066C21.1988 5.25066 21.3894 5.32955 21.53 5.47ZM3.53 5.47C3.38783 5.33752 3.19978 5.2654 3.00548 5.26883C2.81118 5.27225 2.62579 5.35097 2.48838 5.48838C2.35097 5.62579 2.27225 5.81118 2.26883 6.00548C2.2654 6.19978 2.33752 6.38783 2.47 6.53L3.97 8.03C4.11217 8.16248 4.30022 8.2346 4.49452 8.23118C4.68882 8.22775 4.87421 8.14903 5.01162 8.01162C5.14903 7.87421 5.22775 7.68882 5.23117 7.49452C5.2346 7.30022 5.16248 7.11217 5.03 6.97L3.53 5.47Z"/>
</svg>
