<svg width="24" height="24" viewBox="0 0 24 24" xmlns="http://www.w3.org/2000/svg">
<path fill-rule="evenodd" clip-rule="evenodd" d="M22.1568 16.2302C22.1568 20.9005 17.925 22.9999 12.0008 22.9999C6.07655 22.9999 1.84473 20.9005 1.84473 16.2632C1.84473 11.186 4.38413 8.61358 9.46137 6.04117L7.66367 2.69249C7.55641 2.52476 7.49669 2.33107 7.49086 2.13207C7.48503 1.93306 7.53332 1.73621 7.63058 1.56249C7.72785 1.38878 7.87043 1.24471 8.04313 1.14567C8.21584 1.04662 8.41218 0.9963 8.61124 1.00008H15.7879C15.9745 1.00485 16.1568 1.05702 16.3176 1.15167C16.4785 1.24633 16.6126 1.38035 16.7074 1.54114C16.8021 1.70192 16.8544 1.88418 16.8594 2.07075C16.8643 2.25733 16.8216 2.44208 16.7355 2.60763L14.5402 6.04117C19.6159 8.57901 22.1568 11.1514 22.1568 16.2302ZM12.9829 8.67958C12.9829 8.4191 12.8794 8.16929 12.6953 7.9851C12.5111 7.80092 12.2613 7.69744 12.0008 7.69744C11.7403 7.69744 11.4905 7.80092 11.3063 7.9851C11.1221 8.16929 11.0186 8.4191 11.0186 8.67958V9.66486C10.353 9.6905 9.71955 9.95829 9.23735 10.4179C8.75515 10.8776 8.45734 11.4974 8.39984 12.1611C8.34235 12.8248 8.52913 13.4866 8.92511 14.0224C9.32108 14.5581 9.89901 14.9308 10.5504 15.0705L12.8651 15.5765C13.1023 15.6276 13.3122 15.7647 13.4544 15.9614C13.5965 16.1581 13.6608 16.4004 13.6349 16.6417C13.6089 16.883 13.4945 17.1061 13.3138 17.2681C13.133 17.4301 12.8987 17.5194 12.6561 17.5188H11.3455C11.1423 17.5191 10.9441 17.4564 10.778 17.3393C10.612 17.2222 10.4863 17.0566 10.4184 16.8651C10.3787 16.7394 10.3141 16.6231 10.2286 16.5229C10.143 16.4227 10.0381 16.3408 9.92023 16.282C9.80233 16.2232 9.67381 16.1887 9.54231 16.1806C9.41081 16.1725 9.27902 16.1909 9.15479 16.2348C9.03056 16.2786 8.91642 16.3471 8.81918 16.4359C8.72193 16.5248 8.64357 16.6324 8.58875 16.7522C8.53393 16.872 8.50377 17.0016 8.50008 17.1333C8.49638 17.265 8.51922 17.3961 8.56724 17.5188C8.75244 18.0404 9.08043 18.4994 9.51385 18.8437C9.94727 19.1879 10.4687 19.4035 11.0186 19.4658V20.4652C11.0186 20.7257 11.1221 20.9755 11.3063 21.1597C11.4905 21.3438 11.7403 21.4473 12.0008 21.4473C12.2613 21.4473 12.5111 21.3438 12.6953 21.1597C12.8794 20.9755 12.9829 20.7257 12.9829 20.4652V19.4658C13.6763 19.3869 14.3193 19.0647 14.7974 18.5563C15.2755 18.048 15.5577 17.3865 15.5939 16.6896C15.6301 15.9927 15.4179 15.3055 14.9951 14.7504C14.5722 14.1952 13.9661 13.8081 13.2846 13.6578L10.9699 13.1518C10.7821 13.1134 10.6154 13.0063 10.5024 12.8514C10.3894 12.6966 10.3382 12.5052 10.3588 12.3146C10.3794 12.124 10.4704 11.948 10.614 11.8209C10.7575 11.6939 10.9433 11.6249 11.1349 11.6276H12.6561C12.8595 11.6261 13.0583 11.6883 13.2246 11.8056C13.3909 11.9228 13.5163 12.0891 13.5832 12.2813C13.6746 12.5207 13.856 12.715 14.0887 12.8226C14.3214 12.9301 14.5869 12.9424 14.8285 12.8569C15.0702 12.7714 15.2688 12.5947 15.382 12.3648C15.4952 12.1348 15.5139 11.8696 15.4343 11.626C15.2505 11.1037 14.9228 10.644 14.4891 10.2998C14.0554 9.9556 13.5333 9.74095 12.9829 9.68057V8.67958Z"/>
</svg>
