<svg width="24" height="24" viewBox="0 0 24 24" xmlns="http://www.w3.org/2000/svg">
<path d="M2 6.24211C2 7.24777 2.40366 8.09752 3.00011 8.79066C3.31416 9.15561 3.42287 9.66759 3.22957 10.1086C2.82637 11.0283 2.52632 12.0083 2.52632 13.0526C2.52632 17.9058 6.80211 22 12 22C17.1979 22 21.4737 17.9058 21.4737 13.0526C21.4737 12.0083 21.1736 11.0283 20.7704 10.1086C20.5771 9.66759 20.6859 9.15543 20.9979 8.78874C21.5954 8.08646 22 7.21691 22 6.21053C22 3.86737 20.0632 2 17.7895 2C16.3751 2 15.2137 2.7309 14.5034 3.84896C14.2304 4.27863 13.7428 4.55265 13.2371 4.49408C12.8267 4.44655 12.4136 4.42319 12 4.42421C11.5905 4.42421 11.1753 4.44673 10.7695 4.49247C10.2606 4.54983 9.76822 4.27498 9.49295 3.84317C8.78229 2.72838 7.62246 2 6.21053 2C3.93684 2 2 3.89947 2 6.24211Z"/>
</svg>
