<svg width="24" height="24" viewBox="0 0 24 24" xmlns="http://www.w3.org/2000/svg">
<path d="M5.67036 9.91398L8.73236 5.77098C10.7114 3.09298 11.7014 1.75398 12.6244 2.03698C13.5474 2.31998 13.5474 3.96198 13.5474 7.24698V7.55698C13.5474 8.74198 13.5474 9.33398 13.9264 9.70498L13.9464 9.72498C14.3334 10.088 14.9494 10.088 16.1824 10.088C18.4024 10.088 19.5114 10.088 19.8864 10.761L19.9044 10.795C20.2584 11.478 19.6154 12.348 18.3304 14.085L15.2684 18.229C13.2884 20.907 12.2994 22.246 11.3764 21.963C10.4534 21.68 10.4534 20.038 10.4534 16.753V16.443C10.4534 15.258 10.4534 14.666 10.0744 14.295L10.0544 14.275C9.66736 13.912 9.05136 13.912 7.81836 13.912C5.59836 13.912 4.48936 13.912 4.11536 13.239L4.09636 13.205C3.74236 12.522 4.38536 11.653 5.67036 9.91498"/>
</svg>
