<svg width="24" height="24" viewBox="0 0 24 24" xmlns="http://www.w3.org/2000/svg">
<path d="M4.06728 4.48667C4.12919 4.67229 4.22668 4.8243 4.3437 4.94881C4.54732 5.16546 4.84357 5.25984 5.13878 5.29522C5.33416 5.31862 5.569 5.33723 5.8125 5.33723H18.1875C18.4629 5.33723 18.7121 5.3162 18.909 5.2905C19.1716 5.25624 19.4311 5.16755 19.6204 4.98231C19.7538 4.85175 19.8651 4.68915 19.9326 4.48667C20.2151 3.63932 19.9349 2.75709 19.932 2.74849C19.9046 2.6642 19.8992 2.57426 19.9166 2.48731C19.9339 2.40037 19.9734 2.31936 20.0311 2.25206C20.0888 2.18477 20.1629 2.13347 20.2462 2.10309C20.3295 2.07271 20.4192 2.06428 20.5067 2.07861C20.5749 2.09 21.191 2.20588 21.8016 2.76572C22.3483 3.26687 23 4.23912 23 6.02473C23 6.61418 22.73 7.6086 21.9688 8.47133C21.7793 8.68606 21.3539 9.01135 20.8189 9.32113C19.4549 10.1109 18.1027 11.4061 17.9934 12.9785L17.5081 19.9615C17.4637 20.4749 17.28 20.7383 16.8994 21.0858C16.5189 21.4333 14.9822 21.6881 13.8381 21.8372C12.4145 22.0228 10.7008 21.8735 10.1619 21.8372C9.62309 21.8009 7.5975 21.4333 7.21697 21.0858C6.83644 20.7383 6.66516 20.4749 6.62079 19.9615L6.04012 12.9393C5.91149 11.3836 4.5151 10.2608 3.19641 9.42543C2.72405 9.12622 2.34079 8.78087 2.03125 8.47133C1.2701 7.6086 1 6.61418 1 6.02473C1 4.23912 1.65171 3.26687 2.19844 2.76572C2.8092 2.20588 3.42511 2.09 3.49335 2.07861C3.58105 2.06399 3.67104 2.0723 3.75458 2.10273C3.83812 2.13315 3.91238 2.18467 3.97013 2.25226C4.02789 2.31986 4.06719 2.40124 4.08421 2.4885C4.10123 2.57577 4.0954 2.66595 4.06728 2.7503C4.06505 2.7573 3.78485 3.63932 4.06728 4.48667Z"/>
</svg>
