<svg width="24" height="24" viewBox="0 0 24 24" xmlns="http://www.w3.org/2000/svg">
<path d="M13.7242 16.1382C13.7242 17.0899 14.4966 17.8623 15.4483 17.8623H20.2759C21.2276 17.8623 22 17.0899 22 16.1382V11.3107C22 10.8534 21.8184 10.4149 21.495 10.0915C21.1717 9.76818 20.7331 9.58654 20.2759 9.58654C19.8186 9.58654 19.3801 9.76818 19.0567 10.0915C18.7334 10.4149 18.5518 10.8534 18.5518 11.3107V11.9755L13.2194 6.64312C13.0593 6.48298 12.8692 6.35594 12.66 6.26926C12.4508 6.18259 12.2266 6.13798 12.0001 6.13798C11.7737 6.13798 11.5494 6.18259 11.3402 6.26926C11.131 6.35594 10.9409 6.48298 10.7808 6.64312L7.86223 9.56171L4.94364 6.64312C4.62026 6.31975 4.18167 6.13807 3.72435 6.13807C3.26702 6.13807 2.82843 6.31975 2.50505 6.64312C2.18167 6.9665 2 7.40509 2 7.86242C2 8.08886 2.0446 8.31309 2.13126 8.5223C2.21791 8.7315 2.34493 8.92159 2.50505 9.08171L6.64293 13.2196C6.80304 13.3797 6.99312 13.5068 7.20233 13.5935C7.41154 13.6801 7.63578 13.7247 7.86223 13.7247C8.08868 13.7247 8.31292 13.6801 8.52213 13.5935C8.73134 13.5068 8.92142 13.3797 9.08153 13.2196L12.0001 10.301L16.1132 14.4141H15.4483C14.4966 14.4141 13.7242 15.1865 13.7242 16.1382Z"/>
</svg>
