<svg width="24" height="24" viewBox="0 0 24 24" xmlns="http://www.w3.org/2000/svg">
<path d="M13.7242 7.86206C13.7242 6.91034 14.4966 6.13794 15.4483 6.13794H20.2759C21.2276 6.13794 22 6.91034 22 7.86206V12.6896C22 13.1469 21.8184 13.5854 21.495 13.9087C21.1717 14.2321 20.7331 14.4137 20.2759 14.4137C19.8186 14.4137 19.3801 14.2321 19.0567 13.9087C18.7334 13.5854 18.5518 13.1469 18.5518 12.6896V12.0248L13.2194 17.3571C13.0593 17.5173 12.8692 17.6443 12.66 17.731C12.4508 17.8177 12.2266 17.8623 12.0001 17.8623C11.7737 17.8623 11.5494 17.8177 11.3402 17.731C11.131 17.6443 10.9409 17.5173 10.7808 17.3571L7.86223 14.4385L4.94364 17.3571C4.62026 17.6805 4.18167 17.8622 3.72435 17.8622C3.26702 17.8622 2.82843 17.6805 2.50505 17.3571C2.18167 17.0337 2 16.5951 2 16.1378C2 15.9114 2.0446 15.6872 2.13126 15.4779C2.21791 15.2687 2.34493 15.0786 2.50505 14.9185L6.64293 10.7806C6.80304 10.6205 6.99312 10.4935 7.20233 10.4068C7.41154 10.3201 7.63578 10.2755 7.86223 10.2755C8.08868 10.2755 8.31292 10.3201 8.52213 10.4068C8.73134 10.4935 8.92142 10.6205 9.08153 10.7806L12.0001 13.6992L16.1132 9.58618H15.4483C14.4966 9.58618 13.7242 8.81377 13.7242 7.86206Z"/>
</svg>
