<svg width="24" height="24" viewBox="0 0 24 24" xmlns="http://www.w3.org/2000/svg">
<path d="M5.8472 18.0689C6.95225 19.1846 8.2717 20.0651 9.72606 20.6574L4.4147 22.7362C3.96293 22.917 3.4678 22.9604 2.99148 22.8608C2.51515 22.7612 2.07885 22.5232 1.73736 22.1765C1.39018 21.8353 1.15176 21.399 1.05216 20.9226C0.952562 20.4461 0.996239 19.9508 1.17769 19.4992L3.26648 14.1623C3.85685 15.6242 4.73439 16.9519 5.8472 18.0689ZM5.52517 8.38338L4.23703 11.6926L4.40359 12.3144C4.85526 14.0452 5.75985 15.6244 7.0243 16.8896C8.33465 18.1999 9.90041 19.0994 11.5661 19.4992L12.2546 19.6657L15.5194 18.3887C13.1874 17.3449 10.8665 15.2016 9.78936 14.1245C8.69 13.0251 6.56901 10.7154 5.52517 8.38338ZM8.73219 4.27243C7.85715 4.13363 6.98987 4.64333 6.65784 5.49284L6.65118 5.51171C6.61761 5.59353 6.59701 5.68007 6.5901 5.76823C6.44796 7.68934 8.8599 10.8342 10.9698 12.9441C13.0197 14.994 16.0468 17.3293 17.9791 17.3293C18.1294 17.3349 18.2794 17.3099 18.4199 17.256C19.2694 16.924 19.7825 16.0512 19.6403 15.1805C19.3738 13.5559 17.707 11.0441 15.2884 8.62546C12.8698 6.20687 10.3568 4.53672 8.73219 4.27243ZM22.8074 10.9508C22.421 10.482 21.9455 10.0944 21.4083 9.81059C20.8712 9.52677 20.2831 9.3523 19.6781 9.2973C19.5692 9.28716 19.4594 9.29857 19.355 9.33086C19.2505 9.36316 19.1534 9.41571 19.0693 9.48552C18.9852 9.55533 18.9156 9.64103 18.8646 9.73773C18.8135 9.83442 18.7821 9.94022 18.7719 10.0491C18.7618 10.1579 18.7732 10.2677 18.8055 10.3722C18.8378 10.4766 18.8903 10.5737 18.9602 10.6579C19.03 10.742 19.1157 10.8116 19.2124 10.8626C19.3091 10.9136 19.4149 10.9451 19.5237 10.9552C19.9108 10.9905 20.2871 11.1021 20.6308 11.2838C20.9745 11.4655 21.2787 11.7135 21.5259 12.0135C21.5954 12.0981 21.681 12.1681 21.7777 12.2194C21.8744 12.2708 21.9803 12.3025 22.0893 12.3127C22.1983 12.3229 22.3083 12.3115 22.4128 12.279C22.5174 12.2465 22.6145 12.1936 22.6985 12.1234C22.8686 11.9825 22.9757 11.7798 22.9964 11.5599C23.017 11.34 22.9483 11.1209 22.8074 10.9508ZM13.3873 4.60113C13.3873 4.82202 13.475 5.03386 13.6312 5.19005C13.7874 5.34624 13.9992 5.43398 14.2201 5.43398C14.441 5.43398 14.6528 5.34624 14.809 5.19005C14.9652 5.03386 15.053 4.82202 15.053 4.60113C15.0547 3.99367 14.9358 3.39192 14.7033 2.83073C14.4707 2.26955 14.1291 1.7601 13.6982 1.33192C13.542 1.17568 13.3301 1.0879 13.1091 1.0879C12.8881 1.0879 12.6762 1.17568 12.52 1.33192C12.3638 1.48816 12.276 1.70006 12.276 1.92102C12.276 2.14198 12.3638 2.35388 12.52 2.51012C13.0708 3.06091 13.3862 3.8238 13.3862 4.60224L13.3873 4.60113ZM18.662 6.08471C18.7714 6.08498 18.8797 6.06353 18.9808 6.02159C19.0818 5.97965 19.1735 5.91807 19.2505 5.84041L22.5819 2.50901C22.6593 2.43165 22.7207 2.33981 22.7625 2.23873C22.8044 2.13765 22.826 2.02932 22.826 1.91991C22.826 1.8105 22.8044 1.70217 22.7625 1.60109C22.7207 1.50001 22.6593 1.40817 22.5819 1.33081C22.5046 1.25344 22.4127 1.19208 22.3117 1.15021C22.2106 1.10834 22.1022 1.08679 21.9928 1.08679C21.8834 1.08679 21.7751 1.10834 21.674 1.15021C21.5729 1.19208 21.4811 1.25344 21.4037 1.33081L18.0723 4.66221C17.9556 4.77862 17.8761 4.92705 17.8438 5.0887C17.8115 5.25035 17.8279 5.41795 17.8909 5.57027C17.9539 5.72259 18.0607 5.85279 18.1978 5.94437C18.3349 6.03594 18.4971 6.08479 18.662 6.08471Z"/>
</svg>
