<svg width="24" height="24" viewBox="0 0 24 24" xmlns="http://www.w3.org/2000/svg">
<path d="M10.8291 1.88206C11.169 1.63387 11.579 1.50012 11.9998 1.50012C12.4207 1.50012 12.8306 1.63387 13.1705 1.88206L21.5891 8.02607C22.6974 8.83378 22.1268 10.5865 20.7564 10.5899H3.2421C1.87172 10.5865 1.30224 8.83378 2.40943 8.02607L10.8291 1.88206ZM13.1342 6.33465C13.1342 6.03379 13.0147 5.74524 12.802 5.5325C12.5892 5.31975 12.3007 5.20023 11.9998 5.20023C11.6989 5.20023 11.4104 5.31975 11.1977 5.5325C10.9849 5.74524 10.8654 6.03379 10.8654 6.33465C10.8654 6.63552 10.9849 6.92406 11.1977 7.13681C11.4104 7.34955 11.6989 7.46907 11.9998 7.46907C12.3007 7.46907 12.5892 7.34955 12.802 7.13681C13.0147 6.92406 13.1342 6.63552 13.1342 6.33465ZM11.149 17.3952H8.88016V11.7231H11.149V17.3952ZM15.1195 17.3952H12.8506V11.7231H15.1195V17.3952ZM19.3735 17.3952H16.8211V11.7231H19.3735V17.3952ZM19.6571 18.5297H4.34248C3.66553 18.5297 3.01631 18.7986 2.53763 19.2772C2.05896 19.7559 1.79004 20.4051 1.79004 21.0821V21.6493C1.79004 22.1201 2.1712 22.5001 2.64085 22.5001H21.3588C21.5844 22.5001 21.8008 22.4105 21.9604 22.2509C22.1199 22.0914 22.2096 21.875 22.2096 21.6493V21.0821C22.2096 20.4051 21.9407 19.7559 21.462 19.2772C20.9833 18.7986 20.3341 18.5297 19.6571 18.5297ZM7.17853 17.3952H4.62609V11.7231H7.17853V17.3952Z"/>
</svg>
