<svg width="24" height="24" viewBox="0 0 24 24" xmlns="http://www.w3.org/2000/svg">
<path d="M21.6088 13.562L21.8388 11.126C22.0188 9.214 22.1088 8.257 21.7808 7.862C21.6981 7.75935 21.5958 7.67407 21.48 7.61109C21.3641 7.5481 21.237 7.50865 21.1058 7.495C20.6298 7.453 20.0328 8.133 18.8378 9.493C18.2198 10.197 17.9108 10.548 17.5668 10.603C17.3747 10.6332 17.1779 10.6016 17.0048 10.513C16.6858 10.353 16.4748 9.918 16.0498 9.049L13.8128 4.465C13.0108 2.822 12.6098 2 11.9998 2C11.3898 2 10.9888 2.822 10.1868 4.465L7.94982 9.049C7.52583 9.919 7.31382 10.353 6.99482 10.513C6.8215 10.601 6.62496 10.6325 6.43283 10.603C6.08883 10.548 5.77983 10.197 5.16183 9.493C3.96683 8.133 3.36983 7.453 2.89382 7.495C2.76267 7.50865 2.63552 7.5481 2.51967 7.61109C2.40383 7.67407 2.30158 7.75935 2.21883 7.862C1.89183 8.257 1.98182 9.214 2.16182 11.126L2.39082 13.562C2.76882 17.574 2.95682 19.581 4.14082 20.79C5.32182 22 7.09382 22 10.6398 22H13.3588C16.9038 22 18.6758 22 19.8588 20.79C21.0418 19.58 21.2308 17.574 21.6088 13.562Z"/>
</svg>
