<svg width="24" height="24" viewBox="0 0 24 24" xmlns="http://www.w3.org/2000/svg">
<path d="M22.3617 12.1049L11.8885 1.63883C11.3836 1.13392 10.6695 0.91032 9.96981 1.03294L3.86764 2.10046C3.42679 2.17959 3.02088 2.39221 2.70482 2.70956C2.38876 3.02691 2.17779 3.43369 2.10046 3.87485L1.03294 9.97703C0.91032 10.6767 1.13392 11.3908 1.63883 11.8957L12.1049 22.3617C12.307 22.564 12.5471 22.7246 12.8113 22.8341C13.0756 22.9436 13.3588 23 13.6448 23C13.9309 23 14.2141 22.9436 14.4783 22.8341C14.7426 22.7246 14.9826 22.564 15.1848 22.3617L22.3617 15.192C22.7704 14.7823 23 14.2272 23 13.6484C23 13.0697 22.7704 12.5146 22.3617 12.1049ZM7.36593 7.36593C6.72398 8.00788 5.69252 8.00788 5.05778 7.36593C4.41582 6.73119 4.41582 5.69252 5.05778 5.05778C5.36453 4.75298 5.77942 4.5819 6.21185 4.5819C6.64429 4.5819 7.05917 4.75298 7.36593 5.05778C8.00067 5.69252 8.00067 6.73119 7.36593 7.36593ZM16.4471 14.7015L15.1127 15.1127L14.6943 16.4543C14.4202 17.3487 13.2301 17.5362 12.6891 16.7716L11.8812 15.6248L10.4819 15.6464C9.53703 15.6608 8.98885 14.5861 9.55146 13.8288L10.3882 12.7107L9.94096 11.3836C9.63802 10.4964 10.4891 9.64523 11.3836 9.94817L12.7035 10.3954L13.8288 9.55867C14.5789 8.99606 15.6536 9.54425 15.6392 10.4819L15.6248 11.8812L16.7644 12.6891C17.5362 13.2301 17.3487 14.4202 16.4471 14.7015Z"/>
</svg>
