<svg width="24" height="24" viewBox="0 0 24 24" xmlns="http://www.w3.org/2000/svg">
<path d="M19.352 7.617L15.392 4.054C14.265 3.039 13.702 2.531 13.009 2.266L13 5C13 7.357 13 8.536 13.732 9.268C14.464 10 15.643 10 18 10H21.58C21.218 9.296 20.568 8.712 19.352 7.617Z"/>
<path fill-rule="evenodd" clip-rule="evenodd" d="M14 22H10C6.229 22 4.343 22 3.172 20.828C2.001 19.656 2 17.771 2 14V10C2 6.229 2 4.343 3.172 3.172C4.344 2.001 6.239 2 10.03 2C10.636 2 11.121 2 11.53 2.017C11.5167 2.097 11.51 2.17833 11.51 2.261L11.5 5.095C11.5 6.192 11.5 7.162 11.605 7.943C11.719 8.79 11.98 9.637 12.672 10.329C13.362 11.019 14.21 11.281 15.057 11.395C15.838 11.5 16.808 11.5 17.905 11.5H21.957C22 12.034 22 12.69 22 13.563V14C22 17.771 22 19.657 20.828 20.828C19.656 21.999 17.771 22 14 22ZM9.952 13.199L9.854 13.023C9.474 12.34 9.284 12 9 12C8.716 12 8.526 12.34 8.146 13.023L8.048 13.199C7.94 13.393 7.886 13.489 7.801 13.553C7.716 13.617 7.612 13.641 7.403 13.688L7.212 13.732C6.474 13.899 6.105 13.982 6.017 14.264C5.929 14.546 6.181 14.841 6.684 15.429L6.814 15.581C6.957 15.748 7.029 15.831 7.061 15.935C7.093 16.039 7.082 16.15 7.061 16.373L7.041 16.576C6.965 17.361 6.927 17.754 7.157 17.928C7.387 18.102 7.732 17.943 8.423 17.625L8.601 17.543C8.798 17.453 8.896 17.407 9 17.407C9.104 17.407 9.202 17.453 9.399 17.543L9.577 17.625C10.268 17.944 10.614 18.102 10.844 17.928C11.074 17.754 11.035 17.361 10.959 16.576L10.939 16.373C10.918 16.15 10.907 16.039 10.939 15.935C10.971 15.831 11.043 15.748 11.186 15.581L11.316 15.429C11.819 14.841 12.071 14.547 11.983 14.264C11.895 13.982 11.526 13.899 10.788 13.732L10.598 13.688C10.388 13.641 10.283 13.618 10.198 13.553C10.114 13.489 10.06 13.393 9.952 13.199Z"/>
</svg>
