<svg width="24" height="24" viewBox="0 0 24 24" xmlns="http://www.w3.org/2000/svg">
<path d="M21.5102 3.55642C21.445 3.48837 21.3666 3.43436 21.2798 3.3977C21.1929 3.36104 21.0996 3.34251 21.0053 3.34323C20.9086 3.34323 20.7047 3.4226 20.3957 3.57922C20.0854 3.73627 19.7553 3.91104 19.4091 4.10609C19.0616 4.29986 18.6505 4.47548 18.1755 4.63253C17.7014 4.78915 17.2628 4.86852 16.8588 4.86852C16.4852 4.86852 16.1567 4.7976 15.8726 4.65533C14.9316 4.21458 14.1126 3.88571 13.4181 3.66872C12.7232 3.45215 11.976 3.34323 11.176 3.34323C9.79464 3.34323 8.22123 3.79242 6.45741 4.6891C6.0935 4.87063 5.8326 5.01121 5.66373 5.11422L5.49613 3.88529C5.69095 3.71855 5.84748 3.51173 5.95502 3.27894C6.06256 3.04615 6.11858 2.79289 6.11925 2.53647C6.11203 2.06543 5.91984 1.61614 5.58418 1.28559C5.24853 0.95505 4.79634 0.769775 4.32525 0.769775C3.85416 0.769775 3.40197 0.95505 3.06632 1.28559C2.73066 1.61614 2.53848 2.06543 2.53125 2.53647C2.53125 3.18281 2.87658 3.74471 3.38909 4.06049L5.81234 21.8295C5.85308 22.1042 6.00046 22.3518 6.22252 22.5186C6.44458 22.6854 6.72343 22.7579 6.99862 22.7205C7.2738 22.683 7.52314 22.5386 7.69257 22.3186C7.86201 22.0986 7.93789 21.8206 7.90376 21.545L6.92981 14.4036C8.69701 13.5268 10.2257 13.0847 11.5116 13.0847C12.0575 13.0847 12.5898 13.1654 13.1087 13.3309C13.6279 13.4959 14.0602 13.6741 14.4034 13.8679C14.7462 14.0625 15.152 14.2423 15.6193 14.4057C16.0866 14.5704 16.5481 14.6527 17.0036 14.6527C18.1544 14.6527 19.5319 14.2191 21.1391 13.3524C21.3409 13.2477 21.4883 13.1447 21.582 13.0442C21.6757 12.9433 21.7221 12.7994 21.7221 12.6132V4.06091C21.723 3.96684 21.7046 3.87358 21.6681 3.78684C21.6317 3.70011 21.578 3.6217 21.5102 3.55642Z"/>
</svg>
