<svg width="24" height="24" viewBox="0 0 24 24" xmlns="http://www.w3.org/2000/svg">
<path fill-rule="evenodd" clip-rule="evenodd" d="M11.5 1C6.9438 1 3.25 4.7796 3.25 9.4414C3.25 11.9417 4.3126 14.1879 5.9989 15.7334C6.5599 16.2471 6.9768 16.6288 7.2716 16.906C7.42092 17.0463 7.56761 17.1893 7.7116 17.335L7.7479 17.3746C8.0086 17.7046 8.0647 17.7882 8.0977 17.8652C8.1307 17.9422 8.156 18.0412 8.2209 18.4592C8.2473 18.6242 8.2495 18.9058 8.2495 19.6747V19.7077C8.2495 20.1576 8.2495 20.5459 8.2781 20.8638C8.3078 21.2004 8.3738 21.5348 8.5509 21.8483C8.7489 22.1992 9.0327 22.4896 9.3759 22.692C9.6817 22.8735 10.0084 22.9406 10.3373 22.9714C10.6486 23 11.0281 23 11.4681 23H11.5319C11.9719 23 12.3514 23 12.6627 22.9714C12.9927 22.9406 13.3172 22.8724 13.6252 22.692C13.9692 22.488 14.2533 22.197 14.4491 21.8483C14.6251 21.5348 14.6911 21.2015 14.7219 20.8638C14.7505 20.5448 14.7505 20.1576 14.7494 19.7077V19.6747C14.7494 18.9058 14.7527 18.6242 14.778 18.4592C14.844 18.0412 14.8682 17.9422 14.9023 17.8652C14.9353 17.7882 14.9914 17.7035 15.2521 17.3746L15.2609 17.3636L15.2884 17.335L15.3852 17.236C15.4673 17.1531 15.5817 17.0431 15.7284 16.906C16.0232 16.6288 16.4401 16.2471 17.0011 15.7323C17.8709 14.932 18.5645 13.9593 19.0377 12.8762C19.511 11.7931 19.7536 10.6234 19.75 9.4414C19.75 4.7796 16.0562 1 11.5 1ZM13.2435 20.4414H9.7565C9.75943 20.5477 9.76457 20.6423 9.7719 20.7252C9.7928 20.9562 9.8269 21.0398 9.85 21.0816C9.91587 21.1973 10.0106 21.2939 10.125 21.3621C10.1657 21.3863 10.2471 21.4215 10.4726 21.4424C10.708 21.4644 11.0193 21.4644 11.5 21.4644C11.9807 21.4644 12.292 21.4644 12.5274 21.4424C12.7529 21.4215 12.8343 21.3874 12.875 21.3621C12.9894 21.2939 13.0841 21.1973 13.15 21.0816C13.1731 21.0398 13.2072 20.9562 13.227 20.7252C13.2351 20.6423 13.2406 20.5477 13.2435 20.4414ZM12.721 7.7936C13.0587 8.04 13.1368 8.5196 12.8959 8.865L11.6001 10.7207H13.1423C13.2813 10.7213 13.4175 10.7606 13.5354 10.8342C13.6534 10.9079 13.7485 11.0129 13.81 11.1376C13.873 11.2632 13.9009 11.4035 13.8909 11.5437C13.8808 11.6838 13.8331 11.8187 13.7528 11.934L11.61 15.0041C11.5542 15.0859 11.4825 15.1557 11.3991 15.2092C11.3158 15.2627 11.2225 15.2988 11.1248 15.3155C11.0272 15.3321 10.9272 15.3289 10.8308 15.306C10.7344 15.2831 10.6436 15.2411 10.5639 15.1823C10.402 15.0611 10.2934 14.8818 10.261 14.6822C10.2286 14.4826 10.2749 14.2782 10.3901 14.112L11.6859 12.2563H10.1426C10.0037 12.2555 9.86784 12.2161 9.75011 12.1425C9.63238 12.0689 9.53746 11.9639 9.476 11.8394C9.41263 11.7137 9.38439 11.5733 9.39427 11.4329C9.40414 11.2925 9.45177 11.1574 9.5321 11.0419L11.6749 7.9729C11.7306 7.89097 11.8023 7.82112 11.8856 7.76751C11.9689 7.7139 12.0622 7.67765 12.1598 7.66091C12.2575 7.64418 12.3575 7.6473 12.4539 7.6701C12.5504 7.6929 12.6412 7.7349 12.721 7.7936Z"/>
</svg>
