<svg width="24" height="24" viewBox="0 0 24 24" xmlns="http://www.w3.org/2000/svg">
<path fill-rule="evenodd" clip-rule="evenodd" d="M10.6236 5.53654C8.15309 8.38935 4.84237 10.6217 2.07338 11.8789C1.85485 11.9741 1.65756 12.112 1.49314 12.2846C1.32872 12.4572 1.20049 12.6609 1.116 12.8838C1.03152 13.1067 0.99248 13.3442 1.00119 13.5824C1.00991 13.8206 1.0662 14.0546 1.16674 14.2708C1.58684 15.1784 2.21955 16.5358 2.64374 17.4455C2.74548 17.6623 2.88963 17.8575 3.06768 18.0176C3.24572 18.1777 3.45405 18.3005 3.68035 18.3787C3.90666 18.4569 4.14634 18.489 4.38525 18.4731C4.62416 18.4571 4.85745 18.3934 5.07133 18.2857C7.80659 16.961 11.6488 15.8847 15.4205 15.8224L10.6236 5.53654ZM11.6887 4.1914L17.1337 15.8674C17.4413 15.8888 17.7469 15.9185 18.0505 15.9563C18.3686 16.0062 18.6943 15.9691 18.9931 15.8489C19.2918 15.7287 19.5524 15.5299 19.7473 15.2735C19.9421 15.0157 20.063 14.7098 20.097 14.3885C20.131 14.0673 20.0769 13.7428 19.9405 13.45C18.4184 10.1635 16.8914 6.87932 15.3592 3.59754C15.2224 3.3038 15.0084 3.05275 14.74 2.87125C14.4715 2.68975 14.1588 2.58461 13.8353 2.56708C13.5117 2.54955 13.1895 2.62028 12.9031 2.77172C12.6166 2.92315 12.3767 3.1496 12.209 3.42684C12.0434 3.68544 11.8696 3.94098 11.6887 4.1914ZM19.5991 8.45681L21.4512 7.5931C21.6355 7.50716 21.7782 7.35152 21.8478 7.1604C21.9173 6.96929 21.9082 6.75836 21.8222 6.57402C21.7363 6.38968 21.5806 6.24703 21.3895 6.17744C21.1984 6.10786 20.9875 6.11704 20.8031 6.20298L18.951 7.06669C18.7667 7.15263 18.624 7.30827 18.5544 7.49939C18.4849 7.6905 18.4941 7.90143 18.58 8.08577C18.6659 8.27011 18.8216 8.41276 19.0127 8.48235C19.2038 8.55193 19.4147 8.54274 19.5991 8.45681ZM20.0611 11.9403L21.9817 12.6394C22.1718 12.7055 22.3803 12.6942 22.5622 12.6078C22.744 12.5215 22.8846 12.3671 22.9536 12.178C23.0226 11.9889 23.0144 11.7803 22.9309 11.5971C22.8473 11.414 22.6951 11.2711 22.5071 11.1992L20.5854 10.5001C20.4902 10.4625 20.3884 10.4445 20.2861 10.4469C20.1837 10.4493 20.0829 10.4723 19.9896 10.5143C19.8962 10.5563 19.8123 10.6166 19.7426 10.6916C19.6729 10.7666 19.619 10.8548 19.584 10.951C19.549 11.0472 19.5336 11.1494 19.5387 11.2517C19.5438 11.3539 19.5694 11.4541 19.6138 11.5463C19.6583 11.6385 19.7208 11.7209 19.7976 11.7885C19.8744 11.8562 19.964 11.9078 20.0611 11.9403ZM18.0198 4.99787L18.719 3.07726C18.7824 2.88776 18.7693 2.68098 18.6825 2.50099C18.5957 2.32099 18.4421 2.18201 18.2543 2.11364C18.0665 2.04528 17.8595 2.05293 17.6772 2.13498C17.495 2.21703 17.3521 2.36699 17.2788 2.5529L16.5797 4.47351C16.5421 4.56875 16.524 4.67054 16.5265 4.77288C16.5289 4.87521 16.5518 4.97602 16.5939 5.06936C16.6359 5.1627 16.6962 5.24668 16.7712 5.31634C16.8462 5.386 16.9344 5.43993 17.0306 5.47495C17.1268 5.50997 17.229 5.52537 17.3313 5.52025C17.4335 5.51512 17.5337 5.48957 17.6259 5.4451C17.7181 5.40064 17.8004 5.33816 17.8681 5.26135C17.9358 5.18453 17.9874 5.09495 18.0198 4.99787ZM11.5742 17.2472C10.2131 17.5042 8.87488 17.8703 7.57252 18.342L8.76536 20.8994C8.96596 21.3293 9.32908 21.6621 9.7749 21.8244C10.2207 21.9867 10.7128 21.9654 11.1429 21.7651L11.6059 21.5484C11.8188 21.4492 12.01 21.309 12.1687 21.1359C12.3273 20.9628 12.4503 20.76 12.5306 20.5393C12.6109 20.3187 12.647 20.0843 12.6367 19.8497C12.6264 19.6151 12.57 19.3848 12.4706 19.1719L11.5742 17.2472Z"/>
</svg>
