<svg width="24" height="24" viewBox="0 0 24 24" xmlns="http://www.w3.org/2000/svg">
<path d="M15.1759 20.6175C14.9477 21.0161 15.3028 21.4954 15.7292 21.3248C18.9952 20.0183 21.4142 17.0448 21.9352 13.4565C21.9774 13.1657 21.7458 12.9129 21.452 12.9129H17.9269C17.661 12.9129 17.4423 13.1214 17.4211 13.3865C17.2129 15.9906 16.4229 18.4397 15.1759 20.6175ZM21.452 11.0874C21.7458 11.0874 21.9774 10.8346 21.9352 10.5438C21.414 6.9546 18.9928 3.98021 15.7257 2.67359C15.2992 2.50305 14.9441 2.98237 15.1724 3.38087C16.4205 5.55941 17.212 8.00893 17.421 10.614C17.4423 10.879 17.6609 11.0874 17.9268 11.0874H21.452ZM8.82707 3.38095C9.05547 2.98246 8.70038 2.50302 8.27389 2.67353C5.00574 3.98009 2.58563 6.95442 2.06312 10.5436C2.02078 10.8345 2.25235 11.0874 2.54627 11.0874H6.07217C6.33809 11.0874 6.5567 10.879 6.57797 10.614C6.787 8.00896 7.57842 5.55947 8.82707 3.38095ZM2.54792 12.9129C2.25374 12.9129 2.02206 13.166 2.06486 13.457C2.33902 15.321 3.13241 17.0744 4.35932 18.5138C5.41947 19.7575 6.76237 20.7188 8.26717 21.3222C8.69384 21.4933 9.04975 21.0135 8.8214 20.6146C7.57534 18.4375 6.786 15.9894 6.57785 13.3865C6.55665 13.1214 6.33801 12.9129 6.07204 12.9129H2.54792ZM12.376 21.5341C12.185 21.7827 11.8139 21.7828 11.6229 21.5342C9.841 19.2157 8.69437 16.4446 8.41564 13.4415C8.38907 13.1552 8.61814 12.9129 8.90571 12.9129H15.0939C15.3816 12.9129 15.6107 13.1553 15.5839 13.4418C15.3037 16.444 14.157 19.2156 12.376 21.5341ZM11.6231 2.47049C11.814 2.22198 12.185 2.22194 12.376 2.47042C14.1576 4.78798 15.3029 7.55793 15.583 10.5585C15.6097 10.8449 15.3806 11.0874 15.0929 11.0874H8.90602C8.61833 11.0874 8.38922 10.8449 8.41597 10.5585C8.69618 7.55796 9.8421 4.78804 11.6231 2.47049Z"/>
</svg>
