<svg width="24" height="24" viewBox="0 0 24 24" xmlns="http://www.w3.org/2000/svg">
<path d="M9.03379 5.963L6.49079 8.5C6.02379 8.966 5.59479 9.393 5.25579 9.78C5.02639 10.0351 4.81929 10.3095 4.63679 10.6L4.61279 10.575L4.51779 10.481C4.07477 10.053 3.55502 9.7124 2.98579 9.477L2.86279 9.427L2.48379 9.277C2.36576 9.23047 2.26117 9.15527 2.17948 9.05821C2.09778 8.96114 2.04154 8.84525 2.01584 8.72101C1.99014 8.59677 1.99578 8.46809 2.03226 8.34657C2.06874 8.22506 2.13491 8.11454 2.22479 8.025C3.34479 6.907 4.68979 5.566 5.33979 5.297C5.90433 5.06119 6.52204 4.98207 7.12779 5.068C7.67379 5.149 8.18979 5.43 9.03379 5.963ZM13.3768 19.313C13.5818 19.521 13.7168 19.668 13.8408 19.825C14.0028 20.0323 14.1475 20.2517 14.2748 20.483C14.4168 20.743 14.5278 21.02 14.7488 21.575C14.7922 21.68 14.8608 21.7726 14.9485 21.8447C15.0363 21.9168 15.1405 21.9661 15.2519 21.9882C15.3632 22.0104 15.4784 22.0047 15.587 21.9717C15.6957 21.9387 15.7945 21.8794 15.8748 21.799L15.9588 21.716C17.0788 20.599 18.4238 19.258 18.6938 18.611C18.931 18.0489 19.0101 17.4328 18.9228 16.829C18.8418 16.284 18.5608 15.769 18.0258 14.927L15.4738 17.471C14.9958 17.948 14.5578 18.385 14.1608 18.727C13.9238 18.933 13.6638 19.137 13.3768 19.313Z"/>
<path fill-rule="evenodd" clip-rule="evenodd" d="M14.4468 16.377L20.2938 10.547C21.1358 9.708 21.5568 9.288 21.7778 8.755C21.9988 8.222 21.9998 7.627 21.9998 6.44V5.873C21.9998 4.047 21.9998 3.134 21.4308 2.567C20.8618 2 19.9468 2 18.1158 2H17.5458C16.3558 2 15.7608 2 15.2258 2.221C14.6898 2.442 14.2688 2.862 13.4258 3.701L7.57979 9.531C6.59579 10.511 5.98579 11.12 5.74979 11.707C5.67668 11.8854 5.63866 12.0762 5.63779 12.269C5.63779 13.071 6.28479 13.717 7.57979 15.008L7.75379 15.181L9.79179 13.112C9.86093 13.0418 9.94322 12.9859 10.034 12.9475C10.1247 12.9091 10.2221 12.889 10.3206 12.8883C10.4192 12.8875 10.5169 12.9062 10.6082 12.9432C10.6995 12.9802 10.7826 13.0349 10.8528 13.104C10.923 13.1731 10.9789 13.2554 11.0173 13.3462C11.0556 13.4369 11.0758 13.5343 11.0765 13.6328C11.0773 13.7314 11.0586 13.8291 11.0216 13.9204C10.9846 14.0117 10.9299 14.0948 10.8608 14.165L8.81579 16.24L8.95279 16.377C10.2478 17.667 10.8958 18.313 11.6998 18.313C11.8778 18.313 12.0478 18.282 12.2188 18.219C12.8218 17.997 13.4378 17.383 14.4468 16.377ZM17.1938 9.531C16.829 9.8944 16.3352 10.0984 15.8203 10.0984C15.3054 10.0984 14.8115 9.8944 14.4468 9.531C14.2663 9.35163 14.123 9.13833 14.0253 8.90338C13.9275 8.66843 13.8772 8.41647 13.8772 8.162C13.8772 7.90753 13.9275 7.65557 14.0253 7.42062C14.123 7.18567 14.2663 6.97237 14.4468 6.793C14.8115 6.4296 15.3054 6.22555 15.8203 6.22555C16.3352 6.22555 16.829 6.4296 17.1938 6.793C17.3743 6.97237 17.5175 7.18567 17.6153 7.42062C17.713 7.65557 17.7634 7.90753 17.7634 8.162C17.7634 8.41647 17.713 8.66843 17.6153 8.90338C17.5175 9.13833 17.3743 9.35163 17.1938 9.531Z"/>
</svg>
