<svg width="24" height="24" viewBox="0 0 24 24" xmlns="http://www.w3.org/2000/svg">
<path d="M20.62 9.95905C20.1144 10.4739 19.3972 10.7681 18.6709 10.7681H17.1079L17.0803 10.7957C17.2366 11.329 17.3286 11.899 17.3286 12.4874C17.3286 15.6685 14.7359 18.2613 11.5455 18.2613C10.015 18.2588 8.54778 17.6497 7.4655 16.5675C6.38322 15.4852 5.77413 14.018 5.7717 12.4874C5.7717 9.29708 8.36441 6.70437 11.5455 6.70437C12.0972 6.70437 12.6396 6.77792 13.1453 6.93422L13.1913 6.88825V5.29768C13.1913 4.55297 13.4763 3.86342 14.0003 3.34855L14.8738 2.47512C13.8045 2.11429 12.6833 1.93104 11.5547 1.93267C5.73492 1.93267 1 6.66759 1 12.4782C1 18.298 5.73492 23.033 11.5547 23.033C17.3746 23.033 22.1003 18.298 22.1003 12.4782C22.1003 11.3014 21.9072 10.1521 21.5211 9.05804L20.62 9.95905Z"/>
<path d="M22.9461 4.29554C22.8836 4.13009 22.7751 3.98595 22.6334 3.88008C22.4917 3.77421 22.3227 3.71101 22.1463 3.69793L20.3994 3.56921L20.2707 1.82235C20.2576 1.64595 20.1944 1.47695 20.0885 1.33525C19.9827 1.19355 19.8385 1.08503 19.6731 1.02246C19.3421 0.902943 18.9559 0.985689 18.7077 1.23393L15.2967 4.64491C15.2111 4.73051 15.1434 4.83234 15.0976 4.94443C15.0518 5.05652 15.0289 5.17661 15.0301 5.29769V7.64216L12.7748 9.92596C12.3922 9.73776 11.9719 9.63874 11.5455 9.63635C9.98256 9.63635 8.7046 10.9143 8.7046 12.4773C8.70459 13.2316 9.00361 13.9552 9.53613 14.4894C10.0687 15.0237 10.7912 15.325 11.5455 15.3274C13.1177 15.3274 14.3957 14.0495 14.3957 12.4773C14.3925 12.0386 14.286 11.6068 14.0849 11.2168L16.3356 8.92841H18.6709C18.91 8.92841 19.149 8.83647 19.3237 8.66178L22.7255 5.25999C22.8506 5.13691 22.9378 4.98061 22.9769 4.80955C23.016 4.63849 23.0053 4.46073 22.9461 4.29554Z"/>
</svg>
