<svg width="24" height="24" viewBox="0 0 24 24" xmlns="http://www.w3.org/2000/svg">
<path d="M4.69244 1.52458C5.19283 1.4435 5.68347 1.7529 5.81744 2.25309C5.96032 2.78658 5.64291 3.33482 5.10943 3.4777C4.47558 3.64754 3.89766 3.98147 3.43365 4.44548C2.96964 4.90949 2.63571 5.48741 2.46588 6.12126C2.323 6.65474 1.77475 6.97215 1.24127 6.82927C0.707883 6.68641 0.391546 6.13805 0.534237 5.60466L0.643612 5.24333C0.926028 4.41185 1.39628 3.65472 2.01959 3.03141C2.732 2.319 3.61963 1.80671 4.59283 1.54606L4.69244 1.52458ZM18.1827 2.25309C18.3255 1.71971 18.8739 1.40337 19.4073 1.54606C20.3805 1.80671 21.2681 2.319 21.9805 3.03141C22.6038 3.65472 23.0741 4.41185 23.3565 5.24333L23.4659 5.60466L23.4874 5.70427C23.5684 6.20466 23.259 6.6953 22.7588 6.82927C22.2586 6.96324 21.7453 6.6929 21.5655 6.21891L21.5342 6.12126L21.4629 5.88688C21.279 5.34507 20.9726 4.85162 20.5665 4.44548C20.1603 4.03933 19.6669 3.73296 19.1251 3.54899L18.8907 3.4777L18.793 3.44645C18.319 3.26661 18.0487 2.75331 18.1827 2.25309Z"/>
<path fill-rule="evenodd" clip-rule="evenodd" d="M12.0004 22.4884C14.5137 22.4884 16.9241 21.49 18.7013 19.7128C20.4785 17.9356 21.4769 15.5252 21.4769 13.0119C21.4769 10.4986 20.4785 8.08817 18.7013 6.31098C16.9241 4.53378 14.5137 3.53537 12.0004 3.53537C9.48703 3.53537 7.07664 4.53378 5.29944 6.31098C3.52225 8.08817 2.52383 10.4986 2.52383 13.0119C2.52383 15.5252 3.52225 17.9356 5.29944 19.7128C7.07664 21.49 9.48703 22.4884 12.0004 22.4884ZM13.1849 8.27363C13.1849 7.95947 13.0601 7.65817 12.838 7.43602C12.6158 7.21387 12.3145 7.08907 12.0004 7.08907C11.6862 7.08907 11.3849 7.21387 11.1627 7.43602C10.9406 7.65817 10.8158 7.95947 10.8158 8.27363V12.7158C10.8158 13.5331 11.4792 14.1965 12.2965 14.1965H15.5541C15.8682 14.1965 16.1695 14.0717 16.3917 13.8495C16.6138 13.6274 16.7386 13.3261 16.7386 13.0119C16.7386 12.6977 16.6138 12.3964 16.3917 12.1743C16.1695 11.9521 15.8682 11.8273 15.5541 11.8273H13.1849V8.27363Z"/>
</svg>
