<svg width="24" height="24" viewBox="0 0 24 24" xmlns="http://www.w3.org/2000/svg">
<path d="M21.435 12.9702L17.8933 11.7652C17.7193 11.706 17.5307 11.706 17.3567 11.7652L13.815 12.9702C13.6503 13.0264 13.5072 13.1326 13.4059 13.2742C13.3046 13.4157 13.2501 13.5853 13.25 13.7594V16.511C13.25 19.5527 16.175 21.351 17.2417 21.906C17.3599 21.9681 17.4915 22.0005 17.625 22.0005C17.7585 22.0005 17.8901 21.9681 18.0083 21.906C19.075 21.351 22 19.5535 22 16.511V13.7594C22 13.4027 21.7725 13.0852 21.435 12.9702ZM20.5833 15.6944L18.0833 19.0277C18.0118 19.1233 17.9205 19.2023 17.8157 19.2594C17.7109 19.3165 17.5949 19.3503 17.4758 19.3585L17.4167 19.3602C17.3072 19.3604 17.1988 19.3389 17.0977 19.297C16.9965 19.2551 16.9047 19.1936 16.8275 19.116L15.1608 17.4494C15.0046 17.2931 14.9168 17.0812 14.9168 16.8602C14.9168 16.6392 15.0046 16.4273 15.1608 16.271C15.3171 16.1148 15.529 16.027 15.75 16.027C15.971 16.027 16.1829 16.1148 16.3392 16.271L17.3267 17.2585L19.2508 14.6935C19.3159 14.6043 19.398 14.5289 19.4925 14.4717C19.587 14.4145 19.6918 14.3767 19.8011 14.3604C19.9103 14.344 20.0216 14.3496 20.1287 14.3767C20.2357 14.4038 20.3363 14.4519 20.4246 14.5182C20.5129 14.5845 20.5871 14.6678 20.643 14.763C20.6989 14.8583 20.7352 14.9637 20.75 15.0731C20.7648 15.1825 20.7576 15.2938 20.729 15.4005C20.7004 15.5071 20.6509 15.607 20.5833 15.6944Z" />
<g opacity="0.5">
<path d="M7 7.41699C7.11048 7.41701 7.2168 7.46094 7.29492 7.53906C7.37293 7.61718 7.41699 7.72357 7.41699 7.83398V8.66699H6.58301V7.83398C6.58301 7.72354 6.62701 7.61719 6.70508 7.53906C6.78322 7.46092 6.88949 7.41699 7 7.41699Z" />
<path d="M11.583 7.41699C12.2722 7.41699 12.833 7.97783 12.833 8.66699C12.833 9.35616 12.2722 9.91699 11.583 9.91699V7.41699Z" />
<path fill-rule="evenodd" clip-rule="evenodd" d="M15.125 2C16.1583 2.00007 17 2.84171 17 3.875V10.1416C16.9417 10.1499 16.8747 10.1669 16.8164 10.1836L13.2744 11.3916C12.2663 11.7334 11.583 12.6923 11.583 13.7588V16.167H3.875C2.84177 16.167 2.00018 15.3252 2 14.292V3.875C2 2.84167 2.84167 2 3.875 2H15.125ZM7 6.16699C6.08344 6.16699 5.33319 6.91649 5.33301 7.83301V10.542C5.33319 10.8834 5.61654 11.1669 5.95801 11.167C6.29957 11.167 6.58283 10.8835 6.58301 10.542V9.91699H7.41699V10.542C7.41717 10.8835 7.70043 11.167 8.04199 11.167C8.38335 11.1667 8.66681 10.8834 8.66699 10.542V7.83301C8.66681 6.91653 7.9165 6.16706 7 6.16699ZM10.958 6.16699C10.6164 6.1671 10.333 6.45039 10.333 6.79199V10.542C10.3332 10.8834 10.6165 11.1669 10.958 11.167H11.583C12.9579 11.167 14.0828 10.0418 14.083 8.66699C14.083 7.29199 12.958 6.16699 11.583 6.16699H10.958Z" />
</g>
</svg>
