<svg width="390" height="844" viewBox="0 0 390 844" fill="none" xmlns="http://www.w3.org/2000/svg">
<g clip-path="url(#clip0_11098_1273)">
<rect width="390" height="844" fill="#0D121C"/>
<path opacity="0.5" d="M331.014 235.653C417.095 -358.197 563.122 656.214 693.03 -541.427L969.75 579.914L-108.684 1996.56C-232.273 1632 -480.316 817.625 -483.775 476.594C-488.098 50.3044 -113.464 903.818 -12.9355 385.197C87.5933 -133.423 244.933 829.503 331.014 235.653Z" fill="white" fill-opacity="0.1" stroke="#9AA3B2" stroke-opacity="0.4" stroke-linecap="round" stroke-dasharray="4.56 4.56"/>
<path opacity="0.5" d="M331.014 335.45C417.095 -258.4 563.122 756.011 693.03 -441.63L969.75 679.711L-108.684 2096.35C-232.273 1731.8 -480.316 917.422 -483.775 576.391C-488.098 150.102 -113.464 1003.62 -12.9355 484.995C87.5933 -33.6257 244.933 929.301 331.014 335.45Z" fill="white" fill-opacity="0.1" stroke="#9AA3B2" stroke-opacity="0.4" stroke-linecap="round" stroke-dasharray="4.56 4.56"/>
<path opacity="0.5" d="M149.628 660.071C86.6707 530.888 114.899 858.636 -0.243782 582.144L-0.243774 986.569L386.228 975.734C395.328 831.967 408.068 521.054 386.228 427.542C358.928 310.653 314.543 678.406 252.7 574.852C190.857 471.298 212.585 789.253 149.628 660.071Z" fill="white" fill-opacity="0.1" stroke="#9AA3B2" stroke-opacity="0.4" stroke-linecap="round" stroke-dasharray="4.56 4.56"/>
</g>
<defs>
<clipPath id="clip0_11098_1273">
<rect width="390" height="844" fill="white"/>
</clipPath>
</defs>
</svg>
