<svg width="24" height="24" viewBox="0 0 24 24" xmlns="http://www.w3.org/2000/svg">
<path fill-rule="evenodd" clip-rule="evenodd" d="M8.73236 5.77098L5.67036 9.91398C4.38536 11.653 3.74236 12.522 4.09636 13.205L4.11436 13.239C4.48936 13.912 5.59936 13.912 7.81836 13.912C9.05136 13.912 9.66836 13.912 10.0544 14.275L10.0744 14.295L13.9464 9.72498L13.9264 9.70498C13.5474 9.33398 13.5474 8.74198 13.5474 7.55698V7.24698C13.5474 3.96198 13.5474 2.31998 12.6244 2.03698C11.7014 1.75398 10.7114 3.09298 8.73236 5.77098Z" />
<path opacity="0.5" d="M10.4532 16.443V16.753C10.4532 20.037 10.4532 21.68 11.3762 21.963C12.2992 22.246 13.2892 20.907 15.2692 18.229L18.3312 14.086C19.6152 12.347 20.2582 11.478 19.9042 10.795L19.8862 10.761C19.5112 10.088 18.4012 10.088 16.1822 10.088C14.9492 10.088 14.3322 10.088 13.9462 9.72498L10.0742 14.295C10.4532 14.666 10.4532 15.258 10.4532 16.443Z" />
</svg>
