<svg width="24" height="24" viewBox="0 0 24 24" xmlns="http://www.w3.org/2000/svg">
<path fill-rule="evenodd" clip-rule="evenodd" d="M5.39935 5.39898C5.7313 5.06704 6.26949 5.06704 6.60143 5.39898L12.0004 10.7979L17.3994 5.39898C17.7313 5.06704 18.2695 5.06704 18.6014 5.39898C18.9334 5.73093 18.9334 6.26912 18.6014 6.60107L13.2025 12L18.6014 17.399C18.9334 17.7309 18.9334 18.2691 18.6014 18.6011C18.2695 18.933 17.7313 18.933 17.3994 18.6011L12.0004 13.2021L6.60143 18.6011C6.26949 18.933 5.7313 18.933 5.39935 18.6011C5.0674 18.2691 5.0674 17.7309 5.39935 17.399L10.7983 12L5.39935 6.60107C5.0674 6.26912 5.0674 5.73093 5.39935 5.39898Z"/>
</svg>
