<svg width="24" height="24" viewBox="0 0 24 24" fill="none" xmlns="http://www.w3.org/2000/svg">
<path d="M10.8291 1.88194C11.169 1.63375 11.579 1.5 11.9998 1.5C12.4207 1.5 12.8306 1.63375 13.1705 1.88194L21.5891 8.02595C22.6974 8.83365 22.1268 10.5863 20.7564 10.5897H3.2421C1.87172 10.5863 1.30224 8.83365 2.40943 8.02595L10.8291 1.88194ZM13.1342 6.33453C13.1342 6.03366 13.0147 5.74512 12.802 5.53237C12.5892 5.31963 12.3007 5.20011 11.9998 5.20011C11.6989 5.20011 11.4104 5.31963 11.1977 5.53237C10.9849 5.74512 10.8654 6.03366 10.8654 6.33453C10.8654 6.6354 10.9849 6.92394 11.1977 7.13668C11.4104 7.34943 11.6989 7.46895 11.9998 7.46895C12.3007 7.46895 12.5892 7.34943 12.802 7.13668C13.0147 6.92394 13.1342 6.6354 13.1342 6.33453ZM11.149 17.3951H8.88016V11.723H11.149V17.3951ZM15.1195 17.3951H12.8506V11.723H15.1195V17.3951ZM19.3735 17.3951H16.8211V11.723H19.3735V17.3951ZM19.6571 18.5295H4.34248C3.66553 18.5295 3.01631 18.7985 2.53763 19.2771C2.05896 19.7558 1.79004 20.405 1.79004 21.082V21.6492C1.79004 22.12 2.1712 22.5 2.64085 22.5H21.3588C21.5844 22.5 21.8008 22.4104 21.9604 22.2508C22.1199 22.0912 22.2096 21.8748 22.2096 21.6492V21.082C22.2096 20.405 21.9407 19.7558 21.462 19.2771C20.9833 18.7985 20.3341 18.5295 19.6571 18.5295ZM7.17853 17.3951H4.62609V11.723H7.17853V17.3951Z" fill="currentColor"/>
</svg>
