<svg width="24" height="24" viewBox="0 0 24 24" xmlns="http://www.w3.org/2000/svg">
<path d="M19.6239 4.89798C18.2217 4.25459 16.7181 3.78057 15.1459 3.50907C15.1173 3.50383 15.0887 3.51693 15.0739 3.54312C14.8805 3.88706 14.6663 4.33577 14.5163 4.68845C12.8254 4.4353 11.1431 4.4353 9.48679 4.68845C9.33676 4.32793 9.11478 3.88706 8.92053 3.54312C8.90578 3.5178 8.87718 3.50471 8.84855 3.50907C7.27725 3.7797 5.7736 4.25372 4.37052 4.89798C4.35838 4.90322 4.34797 4.91195 4.34106 4.9233C1.48894 9.18429 0.707629 13.3406 1.09092 17.4453C1.09265 17.4654 1.10392 17.4846 1.11953 17.4968C3.00127 18.8787 4.82407 19.7176 6.61301 20.2737C6.64164 20.2825 6.67197 20.272 6.69019 20.2484C7.11337 19.6705 7.49059 19.0612 7.81402 18.4204C7.83311 18.3829 7.81489 18.3383 7.77588 18.3235C7.17754 18.0965 6.6078 17.8198 6.05975 17.5055C6.0164 17.4802 6.01293 17.4182 6.05281 17.3885C6.16814 17.3021 6.2835 17.2122 6.39363 17.1214C6.41355 17.1048 6.44131 17.1013 6.46474 17.1118C10.0652 18.7556 13.9631 18.7556 17.521 17.1118C17.5445 17.1005 17.5722 17.104 17.593 17.1205C17.7032 17.2113 17.8185 17.3021 17.9347 17.3885C17.9746 17.4182 17.972 17.4802 17.9286 17.5055C17.3806 17.8259 16.8108 18.0965 16.2116 18.3226C16.1726 18.3375 16.1553 18.3829 16.1744 18.4204C16.5047 19.0603 16.882 19.6696 17.2973 20.2475C17.3147 20.272 17.3459 20.2825 17.3745 20.2737C19.1721 19.7176 20.9949 18.8787 22.8766 17.4968C22.8931 17.4846 22.9035 17.4662 22.9053 17.4462C23.364 12.7006 22.1369 8.57846 19.6525 4.92416C19.6465 4.91195 19.6361 4.90322 19.6239 4.89798ZM8.35169 14.9459C7.26771 14.9459 6.37454 13.9508 6.37454 12.7286C6.37454 11.5064 7.25039 10.5112 8.35169 10.5112C9.46163 10.5112 10.3462 11.5151 10.3288 12.7286C10.3288 13.9508 9.45296 14.9459 8.35169 14.9459ZM15.6619 14.9459C14.5779 14.9459 13.6847 13.9508 13.6847 12.7286C13.6847 11.5064 14.5606 10.5112 15.6619 10.5112C16.7718 10.5112 17.6563 11.5151 17.639 12.7286C17.639 13.9508 16.7718 14.9459 15.6619 14.9459Z" />
</svg>
