<svg width="24" height="24" viewBox="0 0 24 24" fill="none" xmlns="http://www.w3.org/2000/svg">
<g clip-path="url(#clip0_2425_38432)">
<path d="M1.70711 0.292893C1.31658 -0.0976311 0.683417 -0.0976311 0.292893 0.292893C-0.0976311 0.683417 -0.0976311 1.31658 0.292893 1.70711L4.56848 5.98269C3.17339 7.18356 1.95643 8.57591 0.953574 10.1175C0.208265 11.2632 0.200166 12.7302 0.952159 13.8816C1.72741 15.0685 3.05064 16.8285 4.88128 18.3003C6.71544 19.7749 9.11096 21 12 21L12.0163 20.9999C14.0848 20.966 16.0962 20.3536 17.8261 19.2403L22.2929 23.7071C22.6834 24.0976 23.3166 24.0976 23.7071 23.7071C24.0976 23.3166 24.0976 22.6834 23.7071 22.2929L15.4462 14.032C14.7501 15.2099 13.4673 16 12 16C9.79086 16 8 14.2091 8 12C8 10.5327 8.79008 9.24987 9.96803 8.55382L1.70711 0.292893Z" fill="currentColor"/>
<path fill-rule="evenodd" clip-rule="evenodd" d="M10.1279 5.21368C10.7408 5.07023 11.3682 4.99852 11.9977 5L12 5C14.2967 5 16.2638 5.97017 17.8673 7.25985C19.4744 8.55235 20.6639 10.1256 21.3749 11.2145C21.6884 11.6946 21.6892 12.3039 21.3728 12.7924C20.9773 13.403 20.5439 13.9888 20.0748 14.5462C19.7193 14.9687 19.7736 15.5996 20.1962 15.9552C20.6187 16.3107 21.2496 16.2564 21.6052 15.8338C22.1278 15.2127 22.6108 14.56 23.0515 13.8796C23.7931 12.7346 23.8001 11.2705 23.0496 10.1211C22.2748 8.93451 20.9517 7.17389 19.1207 5.70136C17.2866 4.22619 14.8907 3.00032 12.0011 3C11.2171 2.99825 10.4355 3.08762 9.67209 3.26632C9.13434 3.39219 8.80045 3.93016 8.92632 4.46791C9.05219 5.00566 9.59016 5.33955 10.1279 5.21368ZM12.0011 3L12.0023 3L12 4V3H12.0011Z" fill="currentColor"/>
<path d="M9.75 12C9.75 11.4033 9.98705 10.831 10.409 10.409C10.831 9.98705 11.4033 9.75 12 9.75C12.5967 9.75 13.169 9.98705 13.591 10.409C14.0129 10.831 14.25 11.4033 14.25 12C14.25 12.5967 14.0129 13.169 13.591 13.591C13.169 14.0129 12.5967 14.25 12 14.25C11.4033 14.25 10.831 14.0129 10.409 13.591C9.98705 13.169 9.75 12.5967 9.75 12Z" fill="currentColor"/>
</g>
<defs>
<clipPath id="clip0_2425_38432">
<rect width="24" height="24" fill="currentColor"/>
</clipPath>
</defs>
</svg>
