<svg width="24" height="24" viewBox="0 0 24 24" xmlns="http://www.w3.org/2000/svg">
<path d="M6.2085 3.5689C6.2085 3.0646 5.94972 2.61462 5.51833 2.32686C4.34448 1.54381 2.34766 2.24403 2.34766 3.61627V12.9692C2.34766 14.8285 3.75445 16.3713 5.49339 17.19C5.60484 17.2425 5.71538 17.2964 5.82497 17.3519C5.99748 17.4391 6.2085 17.321 6.2085 17.1339V3.5689Z"/>
<path d="M11.3563 21.7466C11.3563 22.0048 10.9718 22.0964 10.8326 21.8755C10.0497 20.6327 9.03994 19.533 7.85752 18.6276C7.63289 18.4556 7.49544 18.1976 7.49544 17.9218V5.57439C7.49544 4.55523 8.59432 3.86483 9.63019 4.088C10.5828 4.29324 11.3563 5.05342 11.3563 5.99066V21.7466Z"/>
<path d="M16.5041 17.9218C16.5041 18.1976 16.3666 18.4556 16.142 18.6276C14.9596 19.533 13.9498 20.6327 13.1669 21.8755C13.0277 22.0964 12.6432 22.0048 12.6432 21.7466V5.99066C12.6432 5.05341 13.4167 4.29324 14.3693 4.088C15.4052 3.86483 16.5041 4.55523 16.5041 5.57439V17.9218Z"/>
<path d="M21.6519 12.9692C21.6519 14.8285 20.2451 16.3713 18.5061 17.19C18.3947 17.2425 18.2841 17.2964 18.1745 17.3519C18.002 17.4391 17.791 17.321 17.791 17.1339V3.5689C17.791 3.0646 18.0498 2.61462 18.4812 2.32685C19.655 1.54381 21.6519 2.24403 21.6519 3.61627V12.9692Z"/>
</svg>
