<svg width="24" height="24" viewBox="0 0 24 24" xmlns="http://www.w3.org/2000/svg">
<path d="M17.8623 7.32928C17.1338 7.33071 16.5414 6.74085 16.54 6.01236C16.5386 5.28386 17.1284 4.69152 17.8573 4.6901C18.5861 4.68867 19.1784 5.27887 19.1799 6.00737C19.1809 6.73586 18.5911 7.32785 17.8623 7.32928Z" />
<path fill-rule="evenodd" clip-rule="evenodd" d="M12.0105 17.5399C8.89166 17.546 6.35801 15.0226 6.35196 11.903C6.34589 8.78413 8.86991 6.25008 11.9888 6.24402C15.1084 6.23796 17.6424 8.76274 17.6484 11.8813C17.6545 15.0009 15.1297 17.5339 12.0105 17.5399ZM11.9927 8.22599C9.96835 8.22956 8.32961 9.87436 8.33318 11.8991C8.33709 13.9242 9.98225 15.5626 12.0066 15.5587C14.0317 15.5547 15.6704 13.9103 15.6665 11.8852C15.6626 9.86011 14.0174 8.22207 11.9927 8.22599Z" />
<path fill-rule="evenodd" clip-rule="evenodd" d="M4.77594 1.48494C5.47449 1.21122 6.27389 1.02375 7.44431 0.968507C8.6176 0.912201 8.99216 0.899366 11.9788 0.893666C14.9662 0.887965 15.3407 0.899364 16.514 0.951398C17.6848 1.00201 18.4845 1.18663 19.1845 1.4575C19.9087 1.73656 20.5232 2.11222 21.1355 2.72203C21.7478 3.33254 22.1248 3.94485 22.4074 4.668C22.6808 5.36727 22.8683 6.16597 22.9239 7.33712C22.9795 8.51004 22.993 8.88427 22.9987 11.8713C23.0044 14.858 22.9923 15.2329 22.941 16.4069C22.89 17.577 22.7058 18.3771 22.4349 19.0768C22.1551 19.801 21.7802 20.4154 21.1704 21.0277C20.5606 21.6404 19.9476 22.0171 19.2244 22.3001C18.5252 22.5731 17.7265 22.7606 16.5561 22.8165C15.3828 22.8721 15.0082 22.8853 12.0205 22.891C9.03421 22.8967 8.65965 22.8853 7.48638 22.8336C6.31559 22.7823 5.51547 22.598 4.81585 22.3275C4.09166 22.0474 3.47722 21.6728 2.86492 21.0626C2.25227 20.4525 1.87485 19.8398 1.59259 19.1167C1.31887 18.4178 1.1321 17.6187 1.07615 16.4486C1.0202 15.275 1.00702 14.9 1.00132 11.9134C0.995599 8.92632 1.00737 8.55211 1.05868 7.37881C1.11037 6.20767 1.29392 5.40789 1.56479 4.70755C1.84455 3.98369 2.21948 3.36961 2.83 2.75695C3.4398 2.14465 4.0528 1.76685 4.77594 1.48494ZM5.52974 20.4796C5.91786 20.6289 6.50021 20.8071 7.57263 20.8538C8.73306 20.904 9.08054 20.9151 12.0169 20.9094C14.9544 20.904 15.3019 20.8916 16.462 20.837C17.5333 20.7861 18.1157 20.6057 18.5027 20.4546C19.0163 20.2539 19.382 20.0141 19.7661 19.6295C20.1503 19.2435 20.3881 18.8768 20.5869 18.3632C20.7366 17.9747 20.9145 17.392 20.9612 16.3196C21.0121 15.1598 21.0228 14.812 21.0171 11.8749C21.0118 8.93844 20.9993 8.59059 20.9441 7.43049C20.8934 6.35878 20.7135 5.77641 20.562 5.38971C20.3613 4.87542 20.1222 4.51047 19.7366 4.1259C19.3509 3.74134 18.9842 3.50433 18.4699 3.30546C18.0825 3.15541 17.4994 2.97792 16.4278 2.93124C15.2673 2.88027 14.9195 2.86992 11.9824 2.87563C9.04597 2.88133 8.6985 2.89309 7.53841 2.94799C6.46636 2.99894 5.8847 3.17893 5.49694 3.33041C4.98372 3.53106 4.61805 3.7695 4.2335 4.15549C3.84965 4.54147 3.61193 4.9075 3.41307 5.42215C3.2641 5.80992 3.08482 6.39299 3.03885 7.46471C2.98823 8.62516 2.97755 8.97302 2.98325 11.9094C2.9886 14.8466 3.00107 15.1944 3.0556 16.3538C3.10585 17.4262 3.28725 18.0079 3.43802 18.396C3.63867 18.9089 3.87782 19.2746 4.26309 19.6591C4.64907 20.0422 5.01581 20.2807 5.52974 20.4796Z" />
</svg>
