<svg width="24" height="24" viewBox="0 0 24 24" xmlns="http://www.w3.org/2000/svg">
<path d="M9.89466 3.11169C10.4719 3.11171 10.9424 3.59638 10.9425 4.1957C10.9423 4.75252 10.5338 5.21811 10.0021 5.27384L9.88196 5.2797H6.29694C5.14902 5.2797 4.19426 6.18497 4.1016 7.35493L4.09476 7.52973L4.09378 16.4596C4.09393 17.6362 4.97527 18.6172 6.11628 18.7125L6.2862 18.7194L9.89466 18.7203C10.472 18.7204 10.9424 19.205 10.9425 19.8043C10.9424 20.3612 10.5339 20.8268 10.0021 20.8825L9.88196 20.8883H6.29694C4.00732 20.8883 2.11751 19.0353 2.00488 16.6812L2 16.4537V7.54048C2.00017 5.17887 3.79941 3.23219 6.0821 3.11658L6.3028 3.11169H9.89466Z" />
<path d="M13.2658 6.01408C13.2658 5.04666 14.4168 4.54113 15.1291 5.19571L21.6409 11.1821C22.1196 11.6223 22.1197 12.3778 21.6409 12.8179L15.1291 18.8043C14.417 19.4589 13.2662 18.954 13.2658 17.9869V16.0631H7.68661C7.3186 16.0631 7.01987 15.765 7.01961 15.397V8.60397C7.01961 8.2358 7.31844 7.93697 7.68661 7.93697H13.2658V6.01408Z" />
</svg>
