<svg width="232" height="114" viewBox="0 0 232 114" fill="none" xmlns="http://www.w3.org/2000/svg">
<path d="M98.6263 7.16102C98.6263 5.64813 97.85 4.29818 96.5558 3.43488C93.0342 1.08576 87.0438 3.1864 87.0438 7.30313V35.3619C87.0438 40.9398 91.2641 45.5683 96.481 48.0243C96.8153 48.1818 97.1469 48.3436 97.4757 48.5099C97.9932 48.7716 98.6263 48.4174 98.6263 47.8559V7.16102Z" fill="url(#paint0_linear_11098_1286)"/>
<path d="M114.07 61.6942C114.07 62.4686 112.916 62.7435 112.499 62.0808C110.15 58.3524 107.121 55.0532 103.573 52.3371C102.899 51.8211 102.487 51.0472 102.487 50.2196V13.1775C102.487 10.12 105.784 8.04881 108.891 8.71833C111.749 9.33403 114.07 11.6146 114.07 14.4263V61.6942Z" fill="url(#paint1_linear_11098_1286)"/>
<path d="M129.513 50.2196C129.513 51.0472 129.101 51.8211 128.427 52.3371C124.879 55.0532 121.85 58.3524 119.501 62.0808C119.084 62.7435 117.93 62.4686 117.93 61.6942V14.4263C117.93 11.6146 120.251 9.33403 123.109 8.71833C126.216 8.04881 129.513 10.12 129.513 13.1775V50.2196Z" fill="url(#paint2_linear_11098_1286)"/>
<path d="M144.956 35.3619C144.956 40.9398 140.736 45.5683 135.519 48.0243C135.185 48.1818 134.853 48.3436 134.524 48.5099C134.007 48.7716 133.374 48.4174 133.374 47.8559V7.16102C133.374 5.64813 134.15 4.29818 135.444 3.43488C138.966 1.08576 144.956 3.18639 144.956 7.30312V35.3619Z" fill="url(#paint3_linear_11098_1286)"/>
<path d="M6.3586 97.5804H20.5134V102.436H6.3586V97.5804ZM6.85237 113.258H0.968262V84.4543H22.2827V89.3097H6.85237V113.258Z" fill="white"/>
<path d="M36.8364 113.546C34.5596 113.546 32.5296 113.066 30.7466 112.106C28.9635 111.118 27.5508 109.774 26.5084 108.073C25.4934 106.372 24.9859 104.425 24.9859 102.23C24.9859 100.008 25.4934 98.0605 26.5084 96.3871C27.5508 94.6864 28.9635 93.3559 30.7466 92.3958C32.5296 91.4357 34.5596 90.9556 36.8364 90.9556C39.1407 90.9556 41.1844 91.4357 42.9674 92.3958C44.7779 93.3559 46.1907 94.6864 47.2056 96.3871C48.2206 98.0605 48.7281 100.008 48.7281 102.23C48.7281 104.425 48.2206 106.372 47.2056 108.073C46.1907 109.774 44.7779 111.118 42.9674 112.106C41.1844 113.066 39.1407 113.546 36.8364 113.546ZM36.8364 108.814C38.0434 108.814 39.0996 108.553 40.0048 108.032C40.9375 107.511 41.6781 106.756 42.2268 105.769C42.7754 104.754 43.0497 103.574 43.0497 102.23C43.0497 100.858 42.7754 99.6926 42.2268 98.7325C41.6781 97.745 40.9375 96.9906 40.0048 96.4694C39.0996 95.9208 38.0571 95.6465 36.8776 95.6465C35.698 95.6465 34.6419 95.9208 33.7092 96.4694C32.7765 96.9906 32.0359 97.745 31.4872 98.7325C30.9386 99.6926 30.6643 100.858 30.6643 102.23C30.6643 103.574 30.9386 104.754 31.4872 105.769C32.0359 106.756 32.7765 107.511 33.7092 108.032C34.6419 108.553 35.6843 108.814 36.8364 108.814Z" fill="white"/>
<path d="M50.5145 113.258L60.2665 100.502L60.1842 103.588L50.8437 91.2025H57.1804L63.4348 99.7201L61.0483 99.7612L67.4261 91.2025H73.516L64.0932 103.506L64.1343 100.502L73.8863 113.258H67.4673L60.8837 104.246L63.2291 104.575L56.7278 113.258H50.5145Z" fill="white"/>
<path d="M77.8789 113.258V84.4543H89.9352C92.5137 84.4543 94.722 84.8658 96.5599 85.6887C98.3979 86.5117 99.8106 87.705 100.798 89.2686C101.813 90.8048 102.321 92.6427 102.321 94.7824C102.321 96.8946 101.813 98.7188 100.798 100.255C99.8106 101.791 98.3979 102.971 96.5599 103.794C94.722 104.617 92.5137 105.028 89.9352 105.028H81.1296L83.763 102.395V113.258H77.8789ZM96.4776 113.258L89.2357 102.806H95.5312L102.856 113.258H96.4776ZM83.763 103.012L81.1296 100.214H89.6883C91.9102 100.214 93.5836 99.7338 94.7083 98.7737C95.833 97.8136 96.3953 96.4831 96.3953 94.7824C96.3953 93.0542 95.833 91.7237 94.7083 90.791C93.5836 89.8309 91.9102 89.3509 89.6883 89.3509H81.1296L83.763 86.5117V103.012Z" fill="white"/>
<path d="M116.903 113.546C115.038 113.546 113.378 113.203 111.924 112.517C110.498 111.804 109.387 110.72 108.591 109.266C107.796 107.812 107.398 105.975 107.398 103.753V91.2025H113.035V102.971C113.035 104.891 113.461 106.317 114.311 107.25C115.189 108.155 116.396 108.608 117.932 108.608C119.057 108.608 120.044 108.375 120.895 107.908C121.745 107.442 122.403 106.743 122.87 105.81C123.363 104.85 123.61 103.67 123.61 102.271V91.2025H129.248V113.258H123.857V107.25L124.845 109.061C124.104 110.514 123.021 111.625 121.594 112.394C120.168 113.162 118.604 113.546 116.903 113.546Z" fill="white"/>
<path d="M148.489 90.9556C150.272 90.9556 151.849 91.2985 153.221 91.9843C154.592 92.6701 155.676 93.7262 156.471 95.1527C157.294 96.5791 157.706 98.4034 157.706 100.625V113.258H152.028V101.407C152.028 99.5418 151.589 98.1565 150.711 97.2512C149.86 96.3185 148.653 95.8522 147.09 95.8522C145.965 95.8522 144.964 96.0854 144.086 96.5517C143.208 97.018 142.522 97.7176 142.029 98.6502C141.562 99.5829 141.329 100.776 141.329 102.23V113.258H135.651V91.2025H141.041V97.2512L140.054 95.3996C140.849 93.9457 141.974 92.8484 143.428 92.1078C144.909 91.3397 146.596 90.9556 148.489 90.9556Z" fill="white"/>
<path d="M176.738 90.9556C178.521 90.9556 180.098 91.2985 181.47 91.9843C182.841 92.6701 183.925 93.7262 184.72 95.1527C185.543 96.5791 185.955 98.4034 185.955 100.625V113.258H180.276V101.407C180.276 99.5418 179.837 98.1565 178.96 97.2512C178.109 96.3185 176.902 95.8522 175.339 95.8522C174.214 95.8522 173.213 96.0854 172.335 96.5517C171.457 97.018 170.771 97.7176 170.277 98.6502C169.811 99.5829 169.578 100.776 169.578 102.23V113.258H163.9V91.2025H169.29V97.2512L168.302 95.3996C169.098 93.9457 170.223 92.8484 171.676 92.1078C173.158 91.3397 174.845 90.9556 176.738 90.9556Z" fill="white"/>
<path d="M202.723 113.546C200.254 113.546 198.087 113.066 196.222 112.106C194.384 111.118 192.958 109.774 191.943 108.073C190.928 106.372 190.42 104.425 190.42 102.23C190.42 100.036 190.914 98.0879 191.901 96.3871C192.889 94.6864 194.247 93.3559 195.975 92.3958C197.731 91.4357 199.72 90.9556 201.942 90.9556C204.081 90.9556 206.001 91.422 207.702 92.3547C209.403 93.2599 210.747 94.5766 211.735 96.3048C212.722 98.0056 213.216 100.022 213.216 102.354C213.216 102.573 213.202 102.834 213.175 103.135C213.175 103.437 213.161 103.711 213.134 103.958H194.946V100.42H210.13L207.908 101.489C207.935 100.282 207.688 99.2263 207.167 98.3211C206.673 97.3884 205.974 96.6614 205.069 96.1402C204.163 95.619 203.121 95.3584 201.942 95.3584C200.762 95.3584 199.72 95.619 198.814 96.1402C197.909 96.6614 197.196 97.3884 196.675 98.3211C196.181 99.2537 195.934 100.351 195.934 101.613V102.477C195.934 103.766 196.222 104.891 196.798 105.851C197.374 106.811 198.183 107.566 199.226 108.114C200.268 108.635 201.489 108.896 202.888 108.896C204.095 108.896 205.165 108.718 206.097 108.361C207.058 107.977 207.922 107.387 208.69 106.592L211.735 109.966C210.72 111.145 209.458 112.037 207.949 112.64C206.44 113.244 204.698 113.546 202.723 113.546Z" fill="white"/>
<path d="M217.906 113.258V91.2025H223.296V97.3335L222.638 95.5642C223.269 94.0554 224.297 92.917 225.724 92.1489C227.178 91.3534 228.947 90.9556 231.032 90.9556V96.2225C230.785 96.1951 230.552 96.1814 230.332 96.1814C230.14 96.1539 229.948 96.1402 229.756 96.1402C227.864 96.1402 226.355 96.6889 225.23 97.7861C224.133 98.856 223.584 100.488 223.584 102.683V113.258H217.906Z" fill="white"/>
<defs>
<linearGradient id="paint0_linear_11098_1286" x1="87.0438" y1="2.45432" x2="141.156" y2="-0.797239" gradientUnits="userSpaceOnUse">
<stop stop-color="#FF692E"/>
<stop offset="1" stop-color="#FF4405"/>
</linearGradient>
<linearGradient id="paint1_linear_11098_1286" x1="87.0438" y1="2.45432" x2="141.156" y2="-0.797239" gradientUnits="userSpaceOnUse">
<stop stop-color="#FF692E"/>
<stop offset="1" stop-color="#FF4405"/>
</linearGradient>
<linearGradient id="paint2_linear_11098_1286" x1="87.0438" y1="2.45432" x2="141.156" y2="-0.797239" gradientUnits="userSpaceOnUse">
<stop stop-color="#FF692E"/>
<stop offset="1" stop-color="#FF4405"/>
</linearGradient>
<linearGradient id="paint3_linear_11098_1286" x1="87.0438" y1="2.45432" x2="141.156" y2="-0.797239" gradientUnits="userSpaceOnUse">
<stop stop-color="#FF692E"/>
<stop offset="1" stop-color="#FF4405"/>
</linearGradient>
</defs>
</svg>
