<svg width="48" height="48" viewBox="0 0 48 48" fill="none" xmlns="http://www.w3.org/2000/svg">
<path d="M11.2592 5.45158C11.2592 4.34213 10.6899 3.35217 9.74087 2.71908C7.15839 0.996393 2.76538 2.53686 2.76538 5.5558V26.1322C2.76538 30.2227 5.86033 33.6169 9.68599 35.418C9.93119 35.5335 10.1744 35.6522 10.4155 35.7741C10.795 35.966 11.2592 35.7063 11.2592 35.2945V5.45158Z" fill="url(#paint0_linear_11103_2505)"/>
<path d="M22.5844 45.4426C22.5844 46.0105 21.7385 46.212 21.4323 45.7261C19.7099 42.9919 17.4884 40.5725 14.8871 38.5807C14.3929 38.2023 14.0905 37.6348 14.0905 37.0279V9.86366C14.0905 7.6215 16.508 6.10263 18.7869 6.59361C20.8827 7.04512 22.5844 8.71751 22.5844 10.7795V45.4426Z" fill="url(#paint1_linear_11103_2505)"/>
<path d="M33.9095 37.0279C33.9095 37.6348 33.6071 38.2023 33.1129 38.5807C30.5116 40.5725 28.2901 42.9919 26.5676 45.7261C26.2615 46.212 25.4156 46.0105 25.4156 45.4426V10.7795C25.4156 8.71751 27.1173 7.04512 29.213 6.59361C31.4919 6.10263 33.9095 7.6215 33.9095 9.86366V37.0279Z" fill="url(#paint2_linear_11103_2505)"/>
<path d="M45.2346 26.1322C45.2346 30.2227 42.1397 33.6169 38.314 35.418C38.0688 35.5335 37.8256 35.6522 37.5845 35.7741C37.205 35.966 36.7408 35.7063 36.7408 35.2945V5.45158C36.7408 4.34213 37.3101 3.35217 38.2591 2.71908C40.8416 0.99639 45.2346 2.53686 45.2346 5.55579V26.1322Z" fill="url(#paint3_linear_11103_2505)"/>
<defs>
<linearGradient id="paint0_linear_11103_2505" x1="2.76538" y1="2" x2="42.4474" y2="-0.384473" gradientUnits="userSpaceOnUse">
<stop stop-color="#FF692E"/>
<stop offset="1" stop-color="#FF4405"/>
</linearGradient>
<linearGradient id="paint1_linear_11103_2505" x1="2.76538" y1="2" x2="42.4474" y2="-0.384473" gradientUnits="userSpaceOnUse">
<stop stop-color="#FF692E"/>
<stop offset="1" stop-color="#FF4405"/>
</linearGradient>
<linearGradient id="paint2_linear_11103_2505" x1="2.76538" y1="2" x2="42.4474" y2="-0.384473" gradientUnits="userSpaceOnUse">
<stop stop-color="#FF692E"/>
<stop offset="1" stop-color="#FF4405"/>
</linearGradient>
<linearGradient id="paint3_linear_11103_2505" x1="2.76538" y1="2" x2="42.4474" y2="-0.384473" gradientUnits="userSpaceOnUse">
<stop stop-color="#FF692E"/>
<stop offset="1" stop-color="#FF4405"/>
</linearGradient>
</defs>
</svg>
