<svg xmlns="http://www.w3.org/2000/svg" width="29" height="28" viewBox="0 0 29 28" fill="none">
  <defs>
    <linearGradient id="gradId" x1="1.95" y1="1.75" x2="26.06" y2="25.86" gradientUnits="userSpaceOnUse">
      <stop offset="0%" stop-color="#FF692E" />
      <stop offset="100%" stop-color="#FF4405" />
    </linearGradient>
  </defs>
  <path
    d="M20.6167 12.8333C20.6167 8.64517 17.2215 5.25 13.0333 5.25C8.84519 5.25 5.45001 8.64517 5.45001 12.8333C5.45001 17.0215 8.84519 20.4167 13.0333 20.4167C15.07 20.4167 16.9176 19.6121 18.2799 18.3055C18.3137 18.265 18.349 18.225 18.387 18.187C18.4251 18.149 18.465 18.1137 18.5055 18.0799C19.8121 16.7175 20.6167 14.87 20.6167 12.8333ZM24.1167 12.8333C24.1167 15.2619 23.3325 17.5058 22.0078 19.332L25.9373 23.2627L26.0581 23.396C26.6182 24.0833 26.5778 25.0968 25.9373 25.7373C25.2968 26.3778 24.2834 26.4182 23.596 25.8581L23.4627 25.7373L19.532 21.8078C17.7059 23.1325 15.4619 23.9167 13.0333 23.9167C6.91219 23.9167 1.95001 18.9545 1.95001 12.8333C1.95001 6.71218 6.91219 1.75 13.0333 1.75C19.1545 1.75 24.1167 6.71218 24.1167 12.8333Z"
    fill="url(#gradId)" />
</svg>
