<svg width="24" height="24" viewBox="0 0 24 24" fill="none" xmlns="http://www.w3.org/2000/svg">
<path d="M17.5 11C17.5 7.41015 14.5899 4.5 11 4.5C7.41015 4.5 4.5 7.41015 4.5 11C4.5 14.5899 7.41015 17.5 11 17.5C12.7457 17.5 14.3293 16.8103 15.4971 15.6904C15.526 15.6557 15.5563 15.6215 15.5889 15.5889C15.6215 15.5563 15.6557 15.526 15.6904 15.4971C16.8103 14.3293 17.5 12.7457 17.5 11ZM20.5 11C20.5 13.0816 19.8278 15.005 18.6924 16.5703L22.0605 19.9395L22.1641 20.0537C22.6442 20.6429 22.6096 21.5115 22.0605 22.0605C21.5115 22.6096 20.6429 22.6442 20.0537 22.1641L19.9395 22.0605L16.5703 18.6924C15.005 19.8278 13.0816 20.5 11 20.5C5.75329 20.5 1.5 16.2467 1.5 11C1.5 5.75329 5.75329 1.5 11 1.5C16.2467 1.5 20.5 5.75329 20.5 11Z" fill="currentColor"/>
</svg>
