<svg width="24" height="24" viewBox="0 0 24 24" xmlns="http://www.w3.org/2000/svg">
<path opacity="0.5" d="M12.0003 16.068L8.22933 19.973C7.68933 20.532 7.41933 20.812 7.18933 20.908C6.66933 21.128 6.09033 20.94 5.81633 20.46C5.69633 20.25 5.65833 19.87 5.58433 19.11C5.54133 18.68 5.52033 18.466 5.45633 18.286C5.38816 18.0901 5.27817 17.9113 5.13398 17.7621C4.98979 17.6129 4.81486 17.4968 4.62133 17.422C4.44833 17.355 4.24133 17.333 3.82633 17.289C3.09233 17.212 2.72533 17.173 2.52133 17.049C2.05833 16.765 1.87533 16.166 2.08833 15.627C2.18233 15.39 2.45233 15.11 2.99233 14.551L5.45633 12L6.69433 10.762L12.0003 16.068ZM12.0003 16.068L17.3063 10.762L18.5443 12L21.0083 14.55C21.5483 15.11 21.8183 15.39 21.9123 15.626C22.1253 16.166 21.9423 16.765 21.4793 17.049C21.2753 17.173 20.9093 17.212 20.1743 17.289C19.7603 17.333 19.5523 17.355 19.3793 17.422C18.9903 17.571 18.6893 17.884 18.5443 18.286C18.4803 18.466 18.4593 18.68 18.4163 19.109C18.3413 19.869 18.3043 20.249 18.1843 20.46C17.9103 20.94 17.3313 21.129 16.8103 20.908C16.5823 20.812 16.3123 20.532 15.7723 19.973L12.0003 16.068Z" />
<path fill-rule="evenodd" clip-rule="evenodd" d="M12 15.8809C13.8565 15.8809 15.637 15.1434 16.9497 13.8307C18.2625 12.5179 19 10.7374 19 8.88092C19 7.02441 18.2625 5.24393 16.9497 3.93117C15.637 2.61842 13.8565 1.88092 12 1.88092C10.1435 1.88092 8.36301 2.61842 7.05025 3.93117C5.7375 5.24393 5 7.02441 5 8.88092C5 10.7374 5.7375 12.5179 7.05025 13.8307C8.36301 15.1434 10.1435 15.8809 12 15.8809ZM12 5.88092C11.716 5.88092 11.526 6.22092 11.146 6.90392L11.048 7.07992C10.94 7.27392 10.886 7.36992 10.802 7.43392C10.717 7.49792 10.612 7.52192 10.402 7.56892L10.212 7.61292C9.474 7.77992 9.105 7.86292 9.017 8.14492C8.929 8.42692 9.181 8.72192 9.684 9.30992L9.814 9.46192C9.957 9.62892 10.029 9.71192 10.061 9.81592C10.093 9.91992 10.082 10.0309 10.061 10.2539L10.041 10.4569C9.965 11.2419 9.927 11.6349 10.156 11.8089C10.386 11.9829 10.732 11.8239 11.423 11.5059L11.601 11.4239C11.798 11.3339 11.896 11.2889 12 11.2889C12.104 11.2889 12.202 11.3339 12.399 11.4239L12.577 11.5059C13.268 11.8249 13.614 11.9829 13.844 11.8089C14.074 11.6349 14.035 11.2419 13.959 10.4569L13.939 10.2539C13.918 10.0309 13.907 9.91992 13.939 9.81592C13.971 9.71192 14.043 9.62892 14.186 9.46192L14.316 9.30992C14.819 8.72192 15.071 8.42792 14.983 8.14492C14.895 7.86292 14.526 7.77992 13.788 7.61292L13.598 7.56892C13.388 7.52192 13.283 7.49892 13.198 7.43392C13.114 7.36992 13.06 7.27392 12.952 7.07992L12.854 6.90392C12.474 6.22092 12.284 5.88092 12 5.88092Z" />
</svg>
