<svg width="24" height="24" viewBox="0 0 24 24" xmlns="http://www.w3.org/2000/svg">
<path opacity="0.5" d="M9.75 7.50089C9.75 7.30198 9.67098 7.11121 9.53033 6.97056C9.38968 6.82991 9.19891 6.75089 9 6.75089H6.298C6.47978 5.36728 7.15845 4.09696 8.20752 3.1767C9.2566 2.25644 10.6045 1.74902 12 1.74902C13.3955 1.74902 14.7434 2.25644 15.7925 3.1767C16.8415 4.09696 17.5202 5.36728 17.702 6.75089H13.5C13.3011 6.75089 13.1103 6.82991 12.9697 6.97056C12.829 7.11121 12.75 7.30198 12.75 7.50089C12.75 7.6998 12.829 7.89057 12.9697 8.03122C13.1103 8.17187 13.3011 8.25089 13.5 8.25089H17.75V9.75089H13.5C13.3011 9.75089 13.1103 9.82991 12.9697 9.97056C12.829 10.1112 12.75 10.302 12.75 10.5009C12.75 10.6998 12.829 10.8906 12.9697 11.0312C13.1103 11.1719 13.3011 11.2509 13.5 11.2509H17.701C17.5184 12.6337 16.8394 13.9031 15.7905 14.8226C14.7417 15.742 13.3943 16.249 11.9995 16.249C10.6047 16.249 9.25735 15.742 8.20846 14.8226C7.15958 13.9031 6.48061 12.6337 6.298 11.2509H9C9.19891 11.2509 9.38968 11.1719 9.53033 11.0312C9.67098 10.8906 9.75 10.6998 9.75 10.5009C9.75 10.302 9.67098 10.1112 9.53033 9.97056C9.38968 9.82991 9.19891 9.75089 9 9.75089H6.25V8.25089H9C9.19891 8.25089 9.38968 8.17187 9.53033 8.03122C9.67098 7.89057 9.75 7.6998 9.75 7.50089Z" />
<path fill-rule="evenodd" clip-rule="evenodd" d="M4 8.75098C4.19891 8.75098 4.38968 8.82999 4.53033 8.97065C4.67098 9.1113 4.75 9.30206 4.75 9.50098V10.501C4.75 11.4531 4.93753 12.3958 5.30187 13.2754C5.66622 14.155 6.20025 14.9543 6.87348 15.6275C7.5467 16.3007 8.34593 16.8348 9.22554 17.1991C10.1052 17.5634 11.0479 17.751 12 17.751C12.9521 17.751 13.8948 17.5634 14.7745 17.1991C15.6541 16.8348 16.4533 16.3007 17.1265 15.6275C17.7997 14.9543 18.3338 14.155 18.6981 13.2754C19.0625 12.3958 19.25 11.4531 19.25 10.501V9.50098C19.25 9.30206 19.329 9.1113 19.4697 8.97065C19.6103 8.82999 19.8011 8.75098 20 8.75098C20.1989 8.75098 20.3897 8.82999 20.5303 8.97065C20.671 9.1113 20.75 9.30206 20.75 9.50098V10.501C20.7501 12.6918 19.9282 14.803 18.447 16.4172C16.9657 18.0314 14.9328 19.0312 12.75 19.219V21.501C12.75 21.6999 12.671 21.8907 12.5303 22.0313C12.3897 22.172 12.1989 22.251 12 22.251C11.8011 22.251 11.6103 22.172 11.4697 22.0313C11.329 21.8907 11.25 21.6999 11.25 21.501V19.219C9.06722 19.0312 7.0343 18.0314 5.55303 16.4172C4.07177 14.803 3.24995 12.6918 3.25 10.501V9.50098C3.25 9.30206 3.32902 9.1113 3.46967 8.97065C3.61032 8.82999 3.80109 8.75098 4 8.75098Z" />
<path d="M12.75 10.501C12.75 10.915 13.086 11.251 13.5 11.251H17.701L17.75 9.75098H13.5C13.3011 9.75098 13.1103 9.82999 12.9697 9.97065C12.829 10.1113 12.75 10.3021 12.75 10.501ZM12.75 7.50098C12.75 7.91498 13.086 8.25098 13.5 8.25098H17.75L17.701 6.75098H13.5C13.3011 6.75098 13.1103 6.82999 12.9697 6.97065C12.829 7.1113 12.75 7.30206 12.75 7.50098ZM9.75 7.50098C9.75 7.30206 9.67098 7.1113 9.53033 6.97065C9.38968 6.82999 9.19891 6.75098 9 6.75098H6.298L6.25 8.25098H9C9.19891 8.25098 9.38968 8.17196 9.53033 8.03131C9.67098 7.89065 9.75 7.69989 9.75 7.50098ZM9.75 10.501C9.75 10.3021 9.67098 10.1113 9.53033 9.97065C9.38968 9.82999 9.19891 9.75098 9 9.75098H6.25L6.298 11.251H9C9.19891 11.251 9.38968 11.172 9.53033 11.0313C9.67098 10.8907 9.75 10.6999 9.75 10.501Z" />
</svg>
