<svg width="24" height="24" viewBox="0 0 24 24" xmlns="http://www.w3.org/2000/svg">
<path d="M12 21.5C17.2469 21.5 21.5 17.2469 21.5 12C21.5 11.5602 20.8407 11.487 20.6136 11.8642C20.1294 12.6663 19.4689 13.3477 18.6823 13.8567C17.8957 14.3658 17.0035 14.6892 16.0734 14.8024C15.1433 14.9156 14.1997 14.8157 13.3139 14.5102C12.4281 14.2046 11.6235 13.7016 10.961 13.039C10.2984 12.3765 9.79535 11.5719 9.48984 10.6861C9.18432 9.80034 9.08438 8.85667 9.19759 7.92656C9.3108 6.99645 9.63419 6.1043 10.1433 5.31769C10.6523 4.53107 11.3337 3.87062 12.1358 3.38635C12.513 3.15835 12.4398 2.5 12 2.5C6.75315 2.5 2.5 6.75315 2.5 12C2.5 17.2469 6.75315 21.5 12 21.5Z" />
</svg>
