<svg width="24" height="24" viewBox="0 0 24 24" xmlns="http://www.w3.org/2000/svg">
<path opacity="0.5" d="M6.2215 4.60054C6.66408 4.30492 7.13072 4.04701 7.6165 3.82954C8.9885 3.21454 9.6745 2.90754 10.5865 3.49954C11.4995 4.08954 11.4995 5.05954 11.4995 6.99954V8.49954C11.4995 10.3855 11.4995 11.3275 12.0855 11.9135C12.6715 12.4995 13.6135 12.4995 15.4995 12.4995H16.9995C18.9395 12.4995 19.9095 12.4995 20.4995 13.4115C21.0915 14.3245 20.7845 15.0105 20.1695 16.3815C19.2902 18.3452 17.7703 19.9523 15.8586 20.9396C13.947 21.9269 11.7568 22.2361 9.6465 21.8165C7.80376 21.45 6.11109 20.5452 4.78254 19.2167C3.45398 17.8881 2.5492 16.1955 2.1826 14.3527C1.816 12.51 2.00405 10.5999 2.72296 8.86407C3.44187 7.12821 4.65937 5.64449 6.2215 4.60054Z" />
<path d="M21.446 7.06895C21.0422 6.04762 20.4332 5.11998 19.6566 4.34339C18.88 3.5668 17.9523 2.95776 16.931 2.55395C15.389 1.94695 14 3.34395 14 4.99995V8.99995C14 9.26517 14.1054 9.51952 14.2929 9.70706C14.4804 9.89459 14.7348 9.99995 15 9.99995H19C20.657 9.99995 22.053 8.60995 21.446 7.06895Z" />
</svg>
