<svg xmlns="http://www.w3.org/2000/svg" width="29" height="28" viewBox="0 0 29 28" fill="none">
<path d="M17.9961 24.2429C17.7637 24.639 18.118 25.1208 18.5476 24.9583C22.4884 23.4672 25.4141 19.9101 26.0043 15.6089C26.0443 15.3178 25.8129 15.0651 25.519 15.0651H21.2362C20.9702 15.0651 20.7515 15.2736 20.7313 15.5388C20.4924 18.682 19.5271 21.6333 17.9961 24.2429ZM25.5191 12.9353C25.8129 12.9353 26.0443 12.6827 26.0043 12.3916C25.4139 8.08929 22.4856 4.53122 18.5434 3.03998C18.1138 2.87748 17.7596 3.35929 17.9921 3.75537C19.5243 6.36583 20.4913 9.31756 20.7312 12.4618C20.7514 12.727 20.9702 12.9353 21.2361 12.9353H25.5191ZM10.8085 3.75545C11.041 3.35938 10.6868 2.87746 10.2572 3.03991C6.31375 4.53109 3.38679 8.08912 2.7947 12.3914C2.75462 12.6826 2.98605 12.9353 3.27997 12.9353H7.56379C7.8297 12.9353 8.04843 12.727 8.06866 12.4618C8.30856 9.31759 9.27556 6.36589 10.8085 3.75545ZM3.28178 15.0651C2.98759 15.0651 2.75606 15.3181 2.79661 15.6095C3.10385 17.8178 4.03519 19.8969 5.48641 21.5995C6.77099 23.1065 8.41139 24.2581 10.2497 24.9556C10.6795 25.1187 11.0345 24.6365 10.802 24.24C9.27202 21.6311 8.30741 18.6808 8.06854 15.5388C8.04838 15.2736 7.82963 15.0651 7.56366 15.0651H3.28178ZM14.7777 25.2028C14.5854 25.4504 14.2144 25.4505 14.0221 25.2029C11.8906 22.4593 10.5247 19.1658 10.2108 15.5939C10.1857 15.3074 10.4146 15.0651 10.7022 15.0651H18.0984C18.3861 15.0651 18.6151 15.3076 18.5898 15.5941C18.2741 19.1651 16.9082 22.4593 14.7777 25.2028ZM14.0223 2.80272C14.2145 2.55521 14.5854 2.55517 14.7777 2.80265C16.9089 5.5451 18.2732 8.83736 18.5887 12.4063C18.614 12.6929 18.385 12.9353 18.0973 12.9353H10.7025C10.4148 12.9353 10.1858 12.6929 10.2112 12.4063C10.5268 8.83739 11.8918 5.54516 14.0223 2.80272Z" fill="url(#paint0_linear_11517_6925)"/>
<defs>
<linearGradient id="paint0_linear_11517_6925" x1="2.73273" y1="2.33197" x2="24.529" y2="0.975529" gradientUnits="userSpaceOnUse">
<stop stop-color="#FF692E"/>
<stop offset="1" stop-color="#FF4405"/>
</linearGradient>
</defs>
</svg>