<svg width="24" height="24" viewBox="0 0 24 24" fill="none" xmlns="http://www.w3.org/2000/svg">
<path d="M17.5143 3.80688C17.5143 3.33752 17.8945 2.9574 18.3639 2.95728C18.8333 2.95728 19.2145 3.33744 19.2145 3.80688V8.05005C19.2144 8.51934 18.8332 8.89955 18.3639 8.89966L14.1217 8.90063L14.0348 8.89673C13.6059 8.85348 13.2712 8.49126 13.2711 8.05103C13.271 7.58167 13.6514 7.20065 14.1207 7.20044L16.1793 7.19946C15.131 6.44398 13.8915 5.98113 12.5895 5.87329C10.9027 5.73367 9.22063 6.19715 7.84336 7.18091C6.46615 8.16472 5.4829 9.60547 5.06797 11.2463C4.65302 12.8873 4.83359 14.6225 5.57773 16.1428C6.32189 17.663 7.58106 18.8702 9.13144 19.5491C10.682 20.228 12.4236 20.3341 14.0455 19.8499C15.6671 19.3656 17.0645 18.3221 17.9889 16.9045C18.9133 15.4866 19.3046 13.7861 19.0934 12.1067L19.9371 12.0012L20.7809 11.8948C21.0423 13.9735 20.5569 16.0773 19.4127 17.8323C18.2685 19.5872 16.5392 20.8793 14.5318 21.4788C12.5243 22.0782 10.369 21.9461 8.4498 21.1057C6.53069 20.2653 4.97145 18.7716 4.05039 16.8899C3.12938 15.0082 2.90593 12.8604 3.41953 10.8293C3.93317 8.79824 5.15123 7.01483 6.85605 5.79712C8.56082 4.5796 10.6423 4.00605 12.7301 4.17896C14.4854 4.32433 16.1485 4.99087 17.5143 6.07935V3.80688ZM19.8307 11.1575C20.2964 11.0989 20.7223 11.429 20.7809 11.8948L19.0934 12.1067C19.035 11.6412 19.3652 11.2162 19.8307 11.1575Z"/>
</svg>
