<svg width="20" height="20" viewBox="0 0 20 20" fill="none" xmlns="http://www.w3.org/2000/svg">
<path fill-rule="evenodd" clip-rule="evenodd" d="M10.293 7.70702C10.1055 7.51949 10.0002 7.26518 10.0002 7.00002C10.0002 6.73486 10.1055 6.48055 10.293 6.29302L13.293 3.29302C13.3852 3.19751 13.4956 3.12133 13.6176 3.06892C13.7396 3.01651 13.8708 2.98892 14.0036 2.98777C14.1363 2.98662 14.268 3.01192 14.3909 3.0622C14.5138 3.11248 14.6255 3.18673 14.7194 3.28063C14.8133 3.37452 14.8875 3.48617 14.9378 3.60907C14.9881 3.73196 15.0134 3.86364 15.0122 3.99642C15.0111 4.1292 14.9835 4.26042 14.9311 4.38242C14.8787 4.50443 14.8025 4.61477 14.707 4.70702L11.707 7.70702C11.5194 7.89449 11.2651 7.99981 11 7.99981C10.7348 7.99981 10.4805 7.89449 10.293 7.70702Z" fill="currentColor"/>
<path fill-rule="evenodd" clip-rule="evenodd" d="M17.707 7.70702C17.5194 7.89449 17.2651 7.99981 17 7.99981C16.7348 7.99981 16.4805 7.89449 16.293 7.70702L13.293 4.70702C13.1108 4.51842 13.01 4.26582 13.0123 4.00362C13.0146 3.74142 13.1197 3.49061 13.3052 3.3052C13.4906 3.11979 13.7414 3.01462 14.0036 3.01235C14.2658 3.01007 14.5184 3.11086 14.707 3.29302L17.707 6.29302C17.8944 6.48055 17.9998 6.73486 17.9998 7.00002C17.9998 7.26518 17.8944 7.51949 17.707 7.70702Z" fill="currentColor"/>
<path fill-rule="evenodd" clip-rule="evenodd" d="M14 5.00002C14.2652 5.00002 14.5195 5.10538 14.7071 5.29291C14.8946 5.48045 15 5.7348 15 6.00002V14C15 14.2652 14.8946 14.5196 14.7071 14.7071C14.5195 14.8947 14.2652 15 14 15C13.7348 15 13.4804 14.8947 13.2929 14.7071C13.1053 14.5196 13 14.2652 13 14V6.00002C13 5.7348 13.1053 5.48045 13.2929 5.29291C13.4804 5.10538 13.7348 5.00002 14 5.00002ZM9.70697 12.293C9.89444 12.4805 9.99976 12.7349 9.99976 13C9.99976 13.2652 9.89444 13.5195 9.70697 13.707L6.70697 16.707C6.51837 16.8892 6.26577 16.99 6.00357 16.9877C5.74137 16.9854 5.49056 16.8802 5.30515 16.6948C5.11974 16.5094 5.01457 16.2586 5.0123 15.9964C5.01002 15.7342 5.11081 15.4816 5.29297 15.293L8.29297 12.293C8.4805 12.1055 8.73481 12.0002 8.99997 12.0002C9.26513 12.0002 9.51944 12.1055 9.70697 12.293Z" fill="currentColor"/>
<path fill-rule="evenodd" clip-rule="evenodd" d="M2.29297 12.293C2.4805 12.1055 2.73481 12.0002 2.99997 12.0002C3.26513 12.0002 3.51944 12.1055 3.70697 12.293L6.70697 15.293C6.80248 15.3853 6.87866 15.4956 6.93107 15.6176C6.98348 15.7396 7.01107 15.8708 7.01222 16.0036C7.01337 16.1364 6.98807 16.2681 6.93779 16.391C6.88751 16.5139 6.81326 16.6255 6.71936 16.7194C6.62547 16.8133 6.51382 16.8876 6.39092 16.9378C6.26803 16.9881 6.13635 17.0134 6.00357 17.0123C5.87079 17.0111 5.73957 16.9835 5.61757 16.9311C5.49556 16.8787 5.38522 16.8025 5.29297 16.707L2.29297 13.707C2.1055 13.5195 2.00018 13.2652 2.00018 13C2.00018 12.7349 2.1055 12.4805 2.29297 12.293Z" fill="currentColor"/>
<path fill-rule="evenodd" clip-rule="evenodd" d="M5.99997 15C5.73475 15 5.4804 14.8947 5.29286 14.7071C5.10533 14.5196 4.99997 14.2652 4.99997 14V6.00002C4.99997 5.7348 5.10533 5.48045 5.29286 5.29291C5.4804 5.10538 5.73475 5.00002 5.99997 5.00002C6.26519 5.00002 6.51954 5.10538 6.70708 5.29291C6.89461 5.48045 6.99997 5.7348 6.99997 6.00002V14C6.99997 14.2652 6.89461 14.5196 6.70708 14.7071C6.51954 14.8947 6.26519 15 5.99997 15Z" fill="currentColor"/>
</svg>
