<svg width="24" height="24" viewBox="0 0 24 24" xmlns="http://www.w3.org/2000/svg">
<path d="M12.8389 3.36825C12.4918 3.20573 12.105 3.14757 11.7254 3.20083C11.3458 3.25409 10.9899 3.41648 10.7009 3.66825L5.63293 8.01125H4.00293C3.4725 8.01125 2.96379 8.22196 2.58872 8.59703C2.21364 8.97211 2.00293 9.48081 2.00293 10.0112V14.0112C2.00293 14.5417 2.21364 15.0504 2.58872 15.4255C2.96379 15.8005 3.4725 16.0112 4.00293 16.0112H5.63293L10.7029 20.3552C10.9928 20.6069 11.3495 20.769 11.7296 20.8221C12.1098 20.8752 12.4972 20.8169 12.8449 20.6542C13.1928 20.4955 13.4872 20.2395 13.6927 19.9171C13.8982 19.5946 14.006 19.2196 14.0029 18.8372V5.18525C14.0054 4.80225 13.8968 4.42675 13.6902 4.10425C13.4836 3.78174 13.1879 3.52608 12.8389 3.36825ZM15.5669 8.06325C15.3449 8.20853 15.1896 8.43602 15.1353 8.69572C15.0809 8.95543 15.1318 9.2261 15.2769 9.44825C15.7517 10.2188 16.0031 11.1061 16.0031 12.0112C16.0031 12.9164 15.7517 13.8037 15.2769 14.5742C15.1317 14.7962 15.0806 15.0668 15.1349 15.3265C15.1892 15.5861 15.3444 15.8135 15.5664 15.9587C15.7884 16.104 16.059 16.155 16.3186 16.1007C16.5783 16.0464 16.8057 15.8912 16.9509 15.6692C17.6508 14.5786 18.0165 13.3071 18.0029 12.0112C18.0162 10.7155 17.6505 9.44404 16.9509 8.35325C16.8058 8.13128 16.5785 7.97604 16.319 7.92166C16.0594 7.86727 15.7889 7.9182 15.5669 8.06325ZM20.0079 5.15925C19.935 5.04999 19.8414 4.95615 19.7322 4.8831C19.6231 4.81005 19.5006 4.75921 19.3718 4.73349C19.243 4.70777 19.1104 4.70767 18.9816 4.73319C18.8527 4.75871 18.7302 4.80936 18.6209 4.88225C18.5117 4.95513 18.4178 5.04882 18.3448 5.15797C18.2717 5.26712 18.2209 5.38958 18.1952 5.51838C18.1695 5.64717 18.1693 5.77977 18.1949 5.90861C18.2204 6.03744 18.271 6.15999 18.3439 6.26925C19.4453 7.9804 20.022 9.97638 20.0029 12.0112C20.0204 14.0186 19.4601 15.9885 18.3889 17.6862C18.2437 17.9082 18.1926 18.1788 18.2469 18.4385C18.3012 18.6981 18.4564 18.9255 18.6784 19.0707C18.9004 19.216 19.171 19.267 19.4306 19.2127C19.6903 19.1584 19.9177 19.0032 20.0629 18.7812C21.3543 16.7613 22.0285 14.4086 22.0029 12.0112C22.0204 9.58156 21.3269 7.19981 20.0079 5.15925Z" />
</svg>
