<svg width="20" height="20" viewBox="0 0 20 20" fill="none" xmlns="http://www.w3.org/2000/svg">
<path d="M7.62851 4.50663C8.68434 2.61329 9.21184 1.66663 10.001 1.66663C10.7902 1.66663 11.3177 2.61329 12.3735 4.50663L12.6468 4.99663C12.9468 5.53496 13.0968 5.80413 13.3302 5.98163C13.5635 6.15913 13.8552 6.22496 14.4385 6.35663L14.9685 6.47663C17.0185 6.94079 18.0427 7.17246 18.2868 7.95663C18.5302 8.73996 17.8318 9.55746 16.4343 11.1916L16.0727 11.6141C15.676 12.0783 15.4768 12.3108 15.3877 12.5975C15.2985 12.885 15.3285 13.195 15.3885 13.8141L15.4435 14.3783C15.6543 16.5591 15.7602 17.6491 15.1218 18.1333C14.4835 18.6175 13.5235 18.1758 11.6052 17.2925L11.1077 17.0641C10.5627 16.8125 10.2902 16.6875 10.001 16.6875C9.71184 16.6875 9.43934 16.8125 8.89434 17.0641L8.39768 17.2925C6.47851 18.1758 5.51851 18.6175 4.88101 18.1341C4.24184 17.6491 4.34768 16.5591 4.55851 14.3783L4.61351 13.815C4.67351 13.195 4.70351 12.885 4.61351 12.5983C4.52518 12.3108 4.32601 12.0783 3.92934 11.615L3.56768 11.1916C2.17018 9.55829 1.47184 8.74079 1.71518 7.95663C1.95851 7.17246 2.98434 6.93996 5.03434 6.47663L5.56434 6.35663C6.14684 6.22496 6.43768 6.15913 6.67184 5.98163C6.90601 5.80413 7.05518 5.53496 7.35518 4.99663L7.62851 4.50663Z" fill="url(#paint0_linear_13190_12336)"/>
<defs>
<linearGradient id="paint0_linear_13190_12336" x1="1.66748" y1="1.66663" x2="17.2366" y2="0.697337" gradientUnits="userSpaceOnUse">
<stop stop-color="#FF692E"/>
<stop offset="1" stop-color="#FF4405"/>
</linearGradient>
</defs>
</svg>
