<svg width="16" height="16" viewBox="0 0 16 16" fill="none" xmlns="http://www.w3.org/2000/svg">
<g clip-path="url(#clip0_13157_8596)">
<path d="M6.1022 3.60534C6.94686 2.09068 7.36886 1.33334 8.0002 1.33334C8.63153 1.33334 9.05353 2.09068 9.8982 3.60534L10.1169 3.99734C10.3569 4.42801 10.4769 4.64334 10.6635 4.78534C10.8502 4.92734 11.0835 4.98001 11.5502 5.08534L11.9742 5.18134C13.6142 5.55268 14.4335 5.73801 14.6289 6.36534C14.8235 6.99201 14.2649 7.64601 13.1469 8.95334L12.8575 9.29134C12.5402 9.66268 12.3809 9.84868 12.3095 10.078C12.2382 10.308 12.2622 10.556 12.3102 11.0513L12.3542 11.5027C12.5229 13.2473 12.6075 14.1193 12.0969 14.5067C11.5862 14.894 10.8182 14.5407 9.28353 13.834L8.88553 13.6513C8.44953 13.45 8.23153 13.35 8.0002 13.35C7.76886 13.35 7.55086 13.45 7.11486 13.6513L6.71753 13.834C5.1822 14.5407 4.4142 14.894 3.9042 14.5073C3.39286 14.1193 3.47753 13.2473 3.6462 11.5027L3.6902 11.052C3.7382 10.556 3.7622 10.308 3.6902 10.0787C3.61953 9.84868 3.4602 9.66268 3.14286 9.29201L2.85353 8.95334C1.73553 7.64668 1.17686 6.99268 1.37153 6.36534C1.5662 5.73801 2.38686 5.55201 4.02686 5.18134L4.45086 5.08534C4.91686 4.98001 5.14953 4.92734 5.33686 4.78534C5.5242 4.64334 5.64353 4.42801 5.88353 3.99734L6.1022 3.60534Z" fill="currentColor"/>
</g>
<defs>
<clipPath id="clip0_13157_8596">
<rect width="16" height="16" fill="currentColor"/>
</clipPath>
</defs>
</svg>
