<svg width="24" height="24" viewBox="0 0 24 24" xmlns="http://www.w3.org/2000/svg">
<g clip-path="url(#clip0_11025_9210)">
<path d="M12 17.8149C10.475 17.8149 9.01247 17.2091 7.93414 16.1308C6.8558 15.0525 6.25 13.5899 6.25 12.0649C6.25 10.5399 6.8558 9.07741 7.93414 7.99908C9.01247 6.92074 10.475 6.31494 12 6.31494C13.525 6.31494 14.9875 6.92074 16.0659 7.99908C17.1442 9.07741 17.75 10.5399 17.75 12.0649C17.75 13.5899 17.1442 15.0525 16.0659 16.1308C14.9875 17.2091 13.525 17.8149 12 17.8149ZM12 0.564941C12.305 0.564941 12.5975 0.686102 12.8132 0.901769C13.0288 1.11744 13.15 1.40994 13.15 1.71494V4.01494C13.15 4.31994 13.0288 4.61245 12.8132 4.82811C12.5975 5.04378 12.305 5.16494 12 5.16494C11.695 5.16494 11.4025 5.04378 11.1868 4.82811C10.9712 4.61245 10.85 4.31994 10.85 4.01494V1.71494C10.85 1.40994 10.9712 1.11744 11.1868 0.901769C11.4025 0.686102 11.695 0.564941 12 0.564941ZM12 18.9649C12.305 18.9649 12.5975 19.0861 12.8132 19.3018C13.0288 19.5174 13.15 19.8099 13.15 20.1149V22.4149C13.15 22.7199 13.0288 23.0124 12.8132 23.2281C12.5975 23.4438 12.305 23.5649 12 23.5649C11.695 23.5649 11.4025 23.4438 11.1868 23.2281C10.9712 23.0124 10.85 22.7199 10.85 22.4149V20.1149C10.85 19.8099 10.9712 19.5174 11.1868 19.3018C11.4025 19.0861 11.695 18.9649 12 18.9649ZM1.65 10.9149H3.95C4.255 10.9149 4.54751 11.0361 4.76317 11.2518C4.97884 11.4674 5.1 11.7599 5.1 12.0649C5.1 12.3699 4.97884 12.6624 4.76317 12.8781C4.54751 13.0938 4.255 13.2149 3.95 13.2149H1.65C1.345 13.2149 1.05249 13.0938 0.836827 12.8781C0.62116 12.6624 0.5 12.3699 0.5 12.0649C0.5 11.7599 0.62116 11.4674 0.836827 11.2518C1.05249 11.0361 1.345 10.9149 1.65 10.9149ZM20.05 10.9149H22.35C22.655 10.9149 22.9475 11.0361 23.1632 11.2518C23.3788 11.4674 23.5 11.7599 23.5 12.0649C23.5 12.3699 23.3788 12.6624 23.1632 12.8781C22.9475 13.0938 22.655 13.2149 22.35 13.2149H20.05C19.745 13.2149 19.4525 13.0938 19.2368 12.8781C19.0212 12.6624 18.9 12.3699 18.9 12.0649C18.9 11.7599 19.0212 11.4674 19.2368 11.2518C19.4525 11.0361 19.745 10.9149 20.05 10.9149ZM20.1316 3.93329C20.3472 4.14895 20.4684 4.4414 20.4684 4.74634C20.4684 5.05128 20.3472 5.34373 20.1316 5.55939L18.5055 7.18549C18.3995 7.29533 18.2726 7.38294 18.1323 7.44321C17.992 7.50348 17.8411 7.5352 17.6884 7.53653C17.5357 7.53786 17.3842 7.50876 17.2429 7.45094C17.1016 7.39311 16.9732 7.30772 16.8652 7.19975C16.7572 7.09177 16.6718 6.96337 16.614 6.82204C16.5562 6.68071 16.5271 6.52928 16.5284 6.37658C16.5297 6.22388 16.5615 6.07298 16.6217 5.93268C16.682 5.79237 16.7696 5.66547 16.8794 5.55939L18.5055 3.93329C18.7212 3.7177 19.0137 3.59659 19.3186 3.59659C19.6235 3.59659 19.916 3.7177 20.1316 3.93329ZM7.12055 16.9444C7.33614 17.16 7.45725 17.4525 7.45725 17.7574C7.45725 18.0624 7.33614 18.3548 7.12055 18.5705L5.49445 20.1966C5.38837 20.3064 5.26147 20.394 5.12117 20.4543C4.98086 20.5146 4.82996 20.5463 4.67726 20.5476C4.52457 20.549 4.37313 20.5199 4.2318 20.462C4.09047 20.4042 3.96207 20.3188 3.8541 20.2108C3.74612 20.1029 3.66073 19.9745 3.60291 19.8331C3.54508 19.6918 3.51599 19.5404 3.51731 19.3877C3.51864 19.235 3.55036 19.0841 3.61063 18.9438C3.6709 18.8035 3.75851 18.6766 3.86835 18.5705L5.49445 16.9444C5.71011 16.7288 6.00256 16.6077 6.3075 16.6077C6.61244 16.6077 6.90489 16.7288 7.12055 16.9444ZM5.49445 3.93329L7.12055 5.55939C7.33003 5.77628 7.44595 6.06678 7.44333 6.3683C7.4407 6.66983 7.31976 6.95826 7.10654 7.17148C6.89332 7.3847 6.60489 7.50565 6.30336 7.50827C6.00183 7.51089 5.71134 7.39497 5.49445 7.18549L3.8695 5.55939C3.66002 5.3425 3.5441 5.05201 3.54672 4.75048C3.54934 4.44895 3.67029 4.16052 3.88351 3.9473C4.09673 3.73408 4.38516 3.61314 4.68669 3.61052C4.98821 3.6079 5.27756 3.72381 5.49445 3.93329ZM18.5055 16.9444L20.1316 18.5705C20.3411 18.7874 20.457 19.0779 20.4544 19.3794C20.4518 19.6809 20.3309 19.9694 20.1176 20.1826C19.9044 20.3958 19.616 20.5167 19.3145 20.5194C19.0129 20.522 18.7224 20.4061 18.5055 20.1966L16.8794 18.5705C16.7696 18.4644 16.682 18.3375 16.6217 18.1972C16.5615 18.0569 16.5297 17.906 16.5284 17.7533C16.5271 17.6006 16.5562 17.4492 16.614 17.3078C16.6718 17.1665 16.7572 17.0381 16.8652 16.9301C16.9732 16.8222 17.1016 16.7368 17.2429 16.6789C17.3842 16.6211 17.5357 16.592 17.6884 16.5934C17.8411 16.5947 17.992 16.6264 18.1323 16.6867C18.2726 16.7469 18.3995 16.8346 18.5055 16.9444Z" />
</g>
<defs>
<clipPath id="clip0_11025_9210">
<rect width="24" height="24" />
</clipPath>
</defs>
</svg>
