<svg width="24" height="24" viewBox="0 0 24 24" xmlns="http://www.w3.org/2000/svg">
<path d="M23 9.00012C23 10.1501 22.796 11.2461 22.388 12.2881C21.98 13.3301 21.4257 14.2758 20.725 15.1251C20.525 15.3584 20.275 15.4834 19.975 15.5001C19.675 15.5168 19.4083 15.4085 19.175 15.1751C18.9583 14.9585 18.8583 14.7001 18.875 14.4001C18.8917 14.1001 18.9917 13.8251 19.175 13.5751C19.675 12.9418 20.0627 12.2334 20.338 11.4501C20.6133 10.6668 20.7507 9.85012 20.75 9.00012C20.7493 8.15012 20.612 7.34178 20.338 6.57512C20.064 5.80845 19.6763 5.10845 19.175 4.47512C18.975 4.22512 18.871 3.95012 18.863 3.65012C18.855 3.35012 18.959 3.08345 19.175 2.85012C19.391 2.61678 19.6537 2.50412 19.963 2.51212C20.2723 2.52012 20.5263 2.64112 20.725 2.87512C21.425 3.72512 21.9793 4.67112 22.388 5.71312C22.7967 6.75512 23.0007 7.85078 23 9.00012ZM18.45 9.00012C18.45 9.53345 18.3667 10.0461 18.2 10.5381C18.0333 11.0301 17.8 11.4841 17.5 11.9001C17.3167 12.1501 17.071 12.2794 16.763 12.2881C16.455 12.2968 16.184 12.1841 15.95 11.9501C15.7333 11.7334 15.621 11.4711 15.613 11.1631C15.605 10.8551 15.6757 10.5591 15.825 10.2751C15.925 10.0918 16.0043 9.89178 16.063 9.67512C16.1217 9.45845 16.1507 9.23345 16.15 9.00012C16.1493 8.76678 16.12 8.54178 16.062 8.32512C16.004 8.10845 15.925 7.90012 15.825 7.70012C15.675 7.41678 15.604 7.12512 15.612 6.82512C15.62 6.52512 15.7327 6.26678 15.95 6.05012C16.1833 5.81678 16.4543 5.70412 16.763 5.71212C17.0717 5.72012 17.3173 5.84945 17.5 6.10012C17.8 6.51678 18.0333 6.97112 18.2 7.46312C18.3667 7.95512 18.45 8.46745 18.45 9.00012ZM9 13.0001C7.9 13.0001 6.95833 12.6084 6.175 11.8251C5.39167 11.0418 5 10.1001 5 9.00012C5 7.90012 5.39167 6.95845 6.175 6.17512C6.95833 5.39178 7.9 5.00012 9 5.00012C10.1 5.00012 11.0417 5.39178 11.825 6.17512C12.6083 6.95845 13 7.90012 13 9.00012C13 10.1001 12.6083 11.0418 11.825 11.8251C11.0417 12.6084 10.1 13.0001 9 13.0001ZM1 19.0001V18.2001C1 17.6501 1.14167 17.1334 1.425 16.6501C1.70833 16.1668 2.1 15.8001 2.6 15.5501C3.45 15.1168 4.40833 14.7501 5.475 14.4501C6.54167 14.1501 7.71667 14.0001 9 14.0001C10.2833 14.0001 11.4583 14.1501 12.525 14.4501C13.5917 14.7501 14.55 15.1168 15.4 15.5501C15.9 15.8001 16.2917 16.1668 16.575 16.6501C16.8583 17.1334 17 17.6501 17 18.2001V19.0001C17 19.5501 16.8043 20.0211 16.413 20.4131C16.0217 20.8051 15.5507 21.0008 15 21.0001H3C2.45 21.0001 1.97933 20.8044 1.588 20.4131C1.19667 20.0218 1.00067 19.5508 1 19.0001Z"/>
</svg>
