<svg width="24" height="24" viewBox="0 0 24 24" xmlns="http://www.w3.org/2000/svg">
<path fill-rule="evenodd" clip-rule="evenodd" d="M22.7227 4.72646C23.0951 5.10123 23.3625 5.56722 23.4982 6.07781C24 7.96235 24 11.8924 24 11.8924C24 11.8924 24 15.8223 23.4982 17.7069C23.3625 18.2175 23.0951 18.6835 22.7227 19.0582C22.3503 19.433 21.8861 19.7034 21.3764 19.8424C19.5 20.3469 12 20.3469 12 20.3469C12 20.3469 4.5 20.3469 2.62364 19.8424C2.11393 19.7034 1.64966 19.433 1.27729 19.0582C0.904916 18.6835 0.637506 18.2175 0.501818 17.7069C5.96046e-08 15.8223 0 11.8924 0 11.8924C0 11.8924 5.96046e-08 7.96235 0.501818 6.07781C0.637506 5.56722 0.904916 5.10123 1.27729 4.72646C1.64966 4.3517 2.11393 4.08131 2.62364 3.94235C4.5 3.43781 12 3.43781 12 3.43781C12 3.43781 19.5 3.43781 21.3764 3.94235C21.8861 4.08131 22.3503 4.3517 22.7227 4.72646ZM15.8182 11.8924L9.54547 8.32375V15.461L15.8182 11.8924Z" />
</svg>
